<svg class="main-svg" xmlns="http://www.w3.org/2000/svg" xmlns:xlink="http://www.w3.org/1999/xlink" width="700" height="600" style="" viewBox="0 0 700 600"><rect x="0" y="0" width="700" height="600" style="fill: rgb(255, 255, 255); fill-opacity: 1;"/><defs id="defs-66e94d"><g class="clips"><clipPath id="clip66e94dxyplot" class="plotclip"><rect width="540" height="420"/></clipPath><clipPath class="axesclip" id="clip66e94dx"><rect x="80" y="0" width="540" height="600"/></clipPath><clipPath class="axesclip" id="clip66e94dy"><rect x="0" y="100" width="700" height="420"/></clipPath><clipPath class="axesclip" id="clip66e94dxy"><rect x="80" y="100" width="540" height="420"/></clipPath></g><g class="gradients"/><g class="patterns"/></defs><g class="bglayer"/><g class="layer-below"><g class="imagelayer"/><g class="shapelayer"/></g><g class="cartesianlayer"><g class="subplot xy"><g class="layer-subplot"><g class="shapelayer"/><g class="imagelayer"/></g><g class="gridlayer"><g class="x"/><g class="y"><path class="ygrid crisp" transform="translate(0,445.43)" d="M80,0h540" style="stroke: rgb(234, 234, 234); stroke-opacity: 1; stroke-width: 1px;"/><path class="ygrid crisp" transform="translate(0,385.1)" d="M80,0h540" style="stroke: rgb(234, 234, 234); stroke-opacity: 1; stroke-width: 1px;"/><path class="ygrid crisp" transform="translate(0,324.76)" d="M80,0h540" style="stroke: rgb(234, 234, 234); stroke-opacity: 1; stroke-width: 1px;"/><path class="ygrid crisp" transform="translate(0,264.41999999999996)" d="M80,0h540" style="stroke: rgb(234, 234, 234); stroke-opacity: 1; stroke-width: 1px;"/><path class="ygrid crisp" transform="translate(0,204.09)" d="M80,0h540" style="stroke: rgb(234, 234, 234); stroke-opacity: 1; stroke-width: 1px;"/><path class="ygrid crisp" transform="translate(0,143.75)" d="M80,0h540" style="stroke: rgb(234, 234, 234); stroke-opacity: 1; stroke-width: 1px;"/></g></g><g class="zerolinelayer"><path class="yzl zl crisp" transform="translate(0,505.77)" d="M80,0h540" style="stroke: rgb(234, 234, 234); stroke-opacity: 1; stroke-width: 2px;"/></g><path class="xlines-below"/><path class="ylines-below"/><g class="overlines-below"/><g class="xaxislayer-below"/><g class="yaxislayer-below"/><g class="overaxes-below"/><g class="plot" transform="translate(80,100)" clip-path="url(#clip66e94dxyplot)"><g class="boxlayer mlayer"><g class="trace boxes" style="opacity: 1;"><path class="box" d="M50.96,352.68H84.04M34.43,377.11H100.57V357.26L84.04,352.68L100.57,348.1V324.53H34.43V348.1L50.96,352.68L34.43,357.26ZM67.5,377.11V398.28M67.5,324.53V247.47M50.96,398.28H84.04M50.96,247.47H84.04" style="vector-effect: non-scaling-stroke; stroke-width: 2px; stroke: rgb(177, 75, 81); stroke-opacity: 1; fill: rgb(177, 75, 81); fill-opacity: 0.5;"/><g class="points"><path class="point" transform="translate(67.5,237.18)" d="M4.5,0A4.5,4.5 0 1,1 0,-4.5A4.5,4.5 0 0,1 4.5,0Z" style="opacity: 0.5; stroke-width: 1px; fill: rgb(177, 75, 81); fill-opacity: 1; stroke: rgb(247, 247, 247); stroke-opacity: 1;"/><path class="point" transform="translate(67.5,201.22)" d="M4.5,0A4.5,4.5 0 1,1 0,-4.5A4.5,4.5 0 0,1 4.5,0Z" style="opacity: 0.5; stroke-width: 1px; fill: rgb(177, 75, 81); fill-opacity: 1; stroke: rgb(247, 247, 247); stroke-opacity: 1;"/><path class="point" transform="translate(67.5,199.62)" d="M4.5,0A4.5,4.5 0 1,1 0,-4.5A4.5,4.5 0 0,1 4.5,0Z" style="opacity: 0.5; stroke-width: 1px; fill: rgb(177, 75, 81); fill-opacity: 1; stroke: rgb(247, 247, 247); stroke-opacity: 1;"/><path class="point" transform="translate(67.5,197.77)" d="M4.5,0A4.5,4.5 0 1,1 0,-4.5A4.5,4.5 0 0,1 4.5,0Z" style="opacity: 0.5; stroke-width: 1px; fill: rgb(177, 75, 81); fill-opacity: 1; stroke: rgb(247, 247, 247); stroke-opacity: 1;"/><path class="point" transform="translate(67.5,195.92)" d="M4.5,0A4.5,4.5 0 1,1 0,-4.5A4.5,4.5 0 0,1 4.5,0Z" style="opacity: 0.5; stroke-width: 1px; fill: rgb(177, 75, 81); fill-opacity: 1; stroke: rgb(247, 247, 247); stroke-opacity: 1;"/><path class="point" transform="translate(67.5,195.62)" d="M4.5,0A4.5,4.5 0 1,1 0,-4.5A4.5,4.5 0 0,1 4.5,0Z" style="opacity: 0.5; stroke-width: 1px; fill: rgb(177, 75, 81); fill-opacity: 1; stroke: rgb(247, 247, 247); stroke-opacity: 1;"/><path class="point" transform="translate(67.5,195.56)" d="M4.5,0A4.5,4.5 0 1,1 0,-4.5A4.5,4.5 0 0,1 4.5,0Z" style="opacity: 0.5; stroke-width: 1px; fill: rgb(177, 75, 81); fill-opacity: 1; stroke: rgb(247, 247, 247); stroke-opacity: 1;"/><path class="point" transform="translate(67.5,193.62)" d="M4.5,0A4.5,4.5 0 1,1 0,-4.5A4.5,4.5 0 0,1 4.5,0Z" style="opacity: 0.5; stroke-width: 1px; fill: rgb(177, 75, 81); fill-opacity: 1; stroke: rgb(247, 247, 247); stroke-opacity: 1;"/><path class="point" transform="translate(67.5,191.62)" d="M4.5,0A4.5,4.5 0 1,1 0,-4.5A4.5,4.5 0 0,1 4.5,0Z" style="opacity: 0.5; stroke-width: 1px; fill: rgb(177, 75, 81); fill-opacity: 1; stroke: rgb(247, 247, 247); stroke-opacity: 1;"/><path class="point" transform="translate(67.5,191.06)" d="M4.5,0A4.5,4.5 0 1,1 0,-4.5A4.5,4.5 0 0,1 4.5,0Z" style="opacity: 0.5; stroke-width: 1px; fill: rgb(177, 75, 81); fill-opacity: 1; stroke: rgb(247, 247, 247); stroke-opacity: 1;"/><path class="point" transform="translate(67.5,188.04)" d="M4.5,0A4.5,4.5 0 1,1 0,-4.5A4.5,4.5 0 0,1 4.5,0Z" style="opacity: 0.5; stroke-width: 1px; fill: rgb(177, 75, 81); fill-opacity: 1; stroke: rgb(247, 247, 247); stroke-opacity: 1;"/><path class="point" transform="translate(67.5,187.36)" d="M4.5,0A4.5,4.5 0 1,1 0,-4.5A4.5,4.5 0 0,1 4.5,0Z" style="opacity: 0.5; stroke-width: 1px; fill: rgb(177, 75, 81); fill-opacity: 1; stroke: rgb(247, 247, 247); stroke-opacity: 1;"/><path class="point" transform="translate(67.5,186.16)" d="M4.5,0A4.5,4.5 0 1,1 0,-4.5A4.5,4.5 0 0,1 4.5,0Z" style="opacity: 0.5; stroke-width: 1px; fill: rgb(177, 75, 81); fill-opacity: 1; stroke: rgb(247, 247, 247); stroke-opacity: 1;"/><path class="point" transform="translate(67.5,183.5)" d="M4.5,0A4.5,4.5 0 1,1 0,-4.5A4.5,4.5 0 0,1 4.5,0Z" style="opacity: 0.5; stroke-width: 1px; fill: rgb(177, 75, 81); fill-opacity: 1; stroke: rgb(247, 247, 247); stroke-opacity: 1;"/><path class="point" transform="translate(67.5,183.06)" d="M4.5,0A4.5,4.5 0 1,1 0,-4.5A4.5,4.5 0 0,1 4.5,0Z" style="opacity: 0.5; stroke-width: 1px; fill: rgb(177, 75, 81); fill-opacity: 1; stroke: rgb(247, 247, 247); stroke-opacity: 1;"/><path class="point" transform="translate(67.5,182.04)" d="M4.5,0A4.5,4.5 0 1,1 0,-4.5A4.5,4.5 0 0,1 4.5,0Z" style="opacity: 0.5; stroke-width: 1px; fill: rgb(177, 75, 81); fill-opacity: 1; stroke: rgb(247, 247, 247); stroke-opacity: 1;"/><path class="point" transform="translate(67.5,177.52)" d="M4.5,0A4.5,4.5 0 1,1 0,-4.5A4.5,4.5 0 0,1 4.5,0Z" style="opacity: 0.5; stroke-width: 1px; fill: rgb(177, 75, 81); fill-opacity: 1; stroke: rgb(247, 247, 247); stroke-opacity: 1;"/><path class="point" transform="translate(67.5,174.41)" d="M4.5,0A4.5,4.5 0 1,1 0,-4.5A4.5,4.5 0 0,1 4.5,0Z" style="opacity: 0.5; stroke-width: 1px; fill: rgb(177, 75, 81); fill-opacity: 1; stroke: rgb(247, 247, 247); stroke-opacity: 1;"/><path class="point" transform="translate(67.5,173.98)" d="M4.5,0A4.5,4.5 0 1,1 0,-4.5A4.5,4.5 0 0,1 4.5,0Z" style="opacity: 0.5; stroke-width: 1px; fill: rgb(177, 75, 81); fill-opacity: 1; stroke: rgb(247, 247, 247); stroke-opacity: 1;"/><path class="point" transform="translate(67.5,172.2)" d="M4.5,0A4.5,4.5 0 1,1 0,-4.5A4.5,4.5 0 0,1 4.5,0Z" style="opacity: 0.5; stroke-width: 1px; fill: rgb(177, 75, 81); fill-opacity: 1; stroke: rgb(247, 247, 247); stroke-opacity: 1;"/><path class="point" transform="translate(67.5,170.47)" d="M4.5,0A4.5,4.5 0 1,1 0,-4.5A4.5,4.5 0 0,1 4.5,0Z" style="opacity: 0.5; stroke-width: 1px; fill: rgb(177, 75, 81); fill-opacity: 1; stroke: rgb(247, 247, 247); stroke-opacity: 1;"/><path class="point" transform="translate(67.5,169)" d="M4.5,0A4.5,4.5 0 1,1 0,-4.5A4.5,4.5 0 0,1 4.5,0Z" style="opacity: 0.5; stroke-width: 1px; fill: rgb(177, 75, 81); fill-opacity: 1; stroke: rgb(247, 247, 247); stroke-opacity: 1;"/><path class="point" transform="translate(67.5,166.07)" d="M4.5,0A4.5,4.5 0 1,1 0,-4.5A4.5,4.5 0 0,1 4.5,0Z" style="opacity: 0.5; stroke-width: 1px; fill: rgb(177, 75, 81); fill-opacity: 1; stroke: rgb(247, 247, 247); stroke-opacity: 1;"/><path class="point" transform="translate(67.5,165.41)" d="M4.5,0A4.5,4.5 0 1,1 0,-4.5A4.5,4.5 0 0,1 4.5,0Z" style="opacity: 0.5; stroke-width: 1px; fill: rgb(177, 75, 81); fill-opacity: 1; stroke: rgb(247, 247, 247); stroke-opacity: 1;"/><path class="point" transform="translate(67.5,163.8)" d="M4.5,0A4.5,4.5 0 1,1 0,-4.5A4.5,4.5 0 0,1 4.5,0Z" style="opacity: 0.5; stroke-width: 1px; fill: rgb(177, 75, 81); fill-opacity: 1; stroke: rgb(247, 247, 247); stroke-opacity: 1;"/><path class="point" transform="translate(67.5,163.32)" d="M4.5,0A4.5,4.5 0 1,1 0,-4.5A4.5,4.5 0 0,1 4.5,0Z" style="opacity: 0.5; stroke-width: 1px; fill: rgb(177, 75, 81); fill-opacity: 1; stroke: rgb(247, 247, 247); stroke-opacity: 1;"/><path class="point" transform="translate(67.5,154.4)" d="M4.5,0A4.5,4.5 0 1,1 0,-4.5A4.5,4.5 0 0,1 4.5,0Z" style="opacity: 0.5; stroke-width: 1px; fill: rgb(177, 75, 81); fill-opacity: 1; stroke: rgb(247, 247, 247); stroke-opacity: 1;"/><path class="point" transform="translate(67.5,147.19)" d="M4.5,0A4.5,4.5 0 1,1 0,-4.5A4.5,4.5 0 0,1 4.5,0Z" style="opacity: 0.5; stroke-width: 1px; fill: rgb(177, 75, 81); fill-opacity: 1; stroke: rgb(247, 247, 247); stroke-opacity: 1;"/><path class="point" transform="translate(67.5,136.76)" d="M4.5,0A4.5,4.5 0 1,1 0,-4.5A4.5,4.5 0 0,1 4.5,0Z" style="opacity: 0.5; stroke-width: 1px; fill: rgb(177, 75, 81); fill-opacity: 1; stroke: rgb(247, 247, 247); stroke-opacity: 1;"/><path class="point" transform="translate(67.5,127.54)" d="M4.5,0A4.5,4.5 0 1,1 0,-4.5A4.5,4.5 0 0,1 4.5,0Z" style="opacity: 0.5; stroke-width: 1px; fill: rgb(177, 75, 81); fill-opacity: 1; stroke: rgb(247, 247, 247); stroke-opacity: 1;"/><path class="point" transform="translate(67.5,120.43)" d="M4.5,0A4.5,4.5 0 1,1 0,-4.5A4.5,4.5 0 0,1 4.5,0Z" style="opacity: 0.5; stroke-width: 1px; fill: rgb(177, 75, 81); fill-opacity: 1; stroke: rgb(247, 247, 247); stroke-opacity: 1;"/><path class="point" transform="translate(67.5,120.34)" d="M4.5,0A4.5,4.5 0 1,1 0,-4.5A4.5,4.5 0 0,1 4.5,0Z" style="opacity: 0.5; stroke-width: 1px; fill: rgb(177, 75, 81); fill-opacity: 1; stroke: rgb(247, 247, 247); stroke-opacity: 1;"/><path class="point" transform="translate(67.5,119.75)" d="M4.5,0A4.5,4.5 0 1,1 0,-4.5A4.5,4.5 0 0,1 4.5,0Z" style="opacity: 0.5; stroke-width: 1px; fill: rgb(177, 75, 81); fill-opacity: 1; stroke: rgb(247, 247, 247); stroke-opacity: 1;"/><path class="point" transform="translate(67.5,116.59)" d="M4.5,0A4.5,4.5 0 1,1 0,-4.5A4.5,4.5 0 0,1 4.5,0Z" style="opacity: 0.5; stroke-width: 1px; fill: rgb(177, 75, 81); fill-opacity: 1; stroke: rgb(247, 247, 247); stroke-opacity: 1;"/><path class="point" transform="translate(67.5,115.11)" d="M4.5,0A4.5,4.5 0 1,1 0,-4.5A4.5,4.5 0 0,1 4.5,0Z" style="opacity: 0.5; stroke-width: 1px; fill: rgb(177, 75, 81); fill-opacity: 1; stroke: rgb(247, 247, 247); stroke-opacity: 1;"/><path class="point" transform="translate(67.5,111.18)" d="M4.5,0A4.5,4.5 0 1,1 0,-4.5A4.5,4.5 0 0,1 4.5,0Z" style="opacity: 0.5; stroke-width: 1px; fill: rgb(177, 75, 81); fill-opacity: 1; stroke: rgb(247, 247, 247); stroke-opacity: 1;"/><path class="point" transform="translate(67.5,96.88)" d="M4.5,0A4.5,4.5 0 1,1 0,-4.5A4.5,4.5 0 0,1 4.5,0Z" style="opacity: 0.5; stroke-width: 1px; fill: rgb(177, 75, 81); fill-opacity: 1; stroke: rgb(247, 247, 247); stroke-opacity: 1;"/><path class="point" transform="translate(67.5,88.45)" d="M4.5,0A4.5,4.5 0 1,1 0,-4.5A4.5,4.5 0 0,1 4.5,0Z" style="opacity: 0.5; stroke-width: 1px; fill: rgb(177, 75, 81); fill-opacity: 1; stroke: rgb(247, 247, 247); stroke-opacity: 1;"/></g></g><g class="trace boxes" style="opacity: 1;"><path class="box" d="M185.96,349.69H219.04M169.43,379.03H235.58V357.19L219.04,349.69L235.58,342.19V287.93H169.43V342.19L185.96,349.69L169.43,357.19ZM202.5,379.03V399M202.5,287.93V151.6M185.96,399H219.04M185.96,151.6H219.04" style="vector-effect: non-scaling-stroke; stroke-width: 2px; stroke: rgb(208, 169, 156); stroke-opacity: 1; fill: rgb(208, 169, 156); fill-opacity: 0.5;"/><g class="points"><path class="point" transform="translate(202.5,151.08)" d="M4.5,0A4.5,4.5 0 1,1 0,-4.5A4.5,4.5 0 0,1 4.5,0Z" style="opacity: 0.5; stroke-width: 1px; fill: rgb(208, 169, 156); fill-opacity: 1; stroke: rgb(247, 247, 247); stroke-opacity: 1;"/><path class="point" transform="translate(202.5,148.97)" d="M4.5,0A4.5,4.5 0 1,1 0,-4.5A4.5,4.5 0 0,1 4.5,0Z" style="opacity: 0.5; stroke-width: 1px; fill: rgb(208, 169, 156); fill-opacity: 1; stroke: rgb(247, 247, 247); stroke-opacity: 1;"/><path class="point" transform="translate(202.5,146.5)" d="M4.5,0A4.5,4.5 0 1,1 0,-4.5A4.5,4.5 0 0,1 4.5,0Z" style="opacity: 0.5; stroke-width: 1px; fill: rgb(208, 169, 156); fill-opacity: 1; stroke: rgb(247, 247, 247); stroke-opacity: 1;"/><path class="point" transform="translate(202.5,141.41)" d="M4.5,0A4.5,4.5 0 1,1 0,-4.5A4.5,4.5 0 0,1 4.5,0Z" style="opacity: 0.5; stroke-width: 1px; fill: rgb(208, 169, 156); fill-opacity: 1; stroke: rgb(247, 247, 247); stroke-opacity: 1;"/><path class="point" transform="translate(202.5,140.91)" d="M4.5,0A4.5,4.5 0 1,1 0,-4.5A4.5,4.5 0 0,1 4.5,0Z" style="opacity: 0.5; stroke-width: 1px; fill: rgb(208, 169, 156); fill-opacity: 1; stroke: rgb(247, 247, 247); stroke-opacity: 1;"/><path class="point" transform="translate(202.5,139.07)" d="M4.5,0A4.5,4.5 0 1,1 0,-4.5A4.5,4.5 0 0,1 4.5,0Z" style="opacity: 0.5; stroke-width: 1px; fill: rgb(208, 169, 156); fill-opacity: 1; stroke: rgb(247, 247, 247); stroke-opacity: 1;"/><path class="point" transform="translate(202.5,138.71)" d="M4.5,0A4.5,4.5 0 1,1 0,-4.5A4.5,4.5 0 0,1 4.5,0Z" style="opacity: 0.5; stroke-width: 1px; fill: rgb(208, 169, 156); fill-opacity: 1; stroke: rgb(247, 247, 247); stroke-opacity: 1;"/><path class="point" transform="translate(202.5,137.87)" d="M4.5,0A4.5,4.5 0 1,1 0,-4.5A4.5,4.5 0 0,1 4.5,0Z" style="opacity: 0.5; stroke-width: 1px; fill: rgb(208, 169, 156); fill-opacity: 1; stroke: rgb(247, 247, 247); stroke-opacity: 1;"/><path class="point" transform="translate(202.5,137.73)" d="M4.5,0A4.5,4.5 0 1,1 0,-4.5A4.5,4.5 0 0,1 4.5,0Z" style="opacity: 0.5; stroke-width: 1px; fill: rgb(208, 169, 156); fill-opacity: 1; stroke: rgb(247, 247, 247); stroke-opacity: 1;"/><path class="point" transform="translate(202.5,137.26)" d="M4.5,0A4.5,4.5 0 1,1 0,-4.5A4.5,4.5 0 0,1 4.5,0Z" style="opacity: 0.5; stroke-width: 1px; fill: rgb(208, 169, 156); fill-opacity: 1; stroke: rgb(247, 247, 247); stroke-opacity: 1;"/><path class="point" transform="translate(202.5,134.2)" d="M4.5,0A4.5,4.5 0 1,1 0,-4.5A4.5,4.5 0 0,1 4.5,0Z" style="opacity: 0.5; stroke-width: 1px; fill: rgb(208, 169, 156); fill-opacity: 1; stroke: rgb(247, 247, 247); stroke-opacity: 1;"/><path class="point" transform="translate(202.5,129.05)" d="M4.5,0A4.5,4.5 0 1,1 0,-4.5A4.5,4.5 0 0,1 4.5,0Z" style="opacity: 0.5; stroke-width: 1px; fill: rgb(208, 169, 156); fill-opacity: 1; stroke: rgb(247, 247, 247); stroke-opacity: 1;"/><path class="point" transform="translate(202.5,127.31)" d="M4.5,0A4.5,4.5 0 1,1 0,-4.5A4.5,4.5 0 0,1 4.5,0Z" style="opacity: 0.5; stroke-width: 1px; fill: rgb(208, 169, 156); fill-opacity: 1; stroke: rgb(247, 247, 247); stroke-opacity: 1;"/><path class="point" transform="translate(202.5,127.01)" d="M4.5,0A4.5,4.5 0 1,1 0,-4.5A4.5,4.5 0 0,1 4.5,0Z" style="opacity: 0.5; stroke-width: 1px; fill: rgb(208, 169, 156); fill-opacity: 1; stroke: rgb(247, 247, 247); stroke-opacity: 1;"/><path class="point" transform="translate(202.5,124.61)" d="M4.5,0A4.5,4.5 0 1,1 0,-4.5A4.5,4.5 0 0,1 4.5,0Z" style="opacity: 0.5; stroke-width: 1px; fill: rgb(208, 169, 156); fill-opacity: 1; stroke: rgb(247, 247, 247); stroke-opacity: 1;"/><path class="point" transform="translate(202.5,122.86)" d="M4.5,0A4.5,4.5 0 1,1 0,-4.5A4.5,4.5 0 0,1 4.5,0Z" style="opacity: 0.5; stroke-width: 1px; fill: rgb(208, 169, 156); fill-opacity: 1; stroke: rgb(247, 247, 247); stroke-opacity: 1;"/><path class="point" transform="translate(202.5,121.85)" d="M4.5,0A4.5,4.5 0 1,1 0,-4.5A4.5,4.5 0 0,1 4.5,0Z" style="opacity: 0.5; stroke-width: 1px; fill: rgb(208, 169, 156); fill-opacity: 1; stroke: rgb(247, 247, 247); stroke-opacity: 1;"/><path class="point" transform="translate(202.5,120.56)" d="M4.5,0A4.5,4.5 0 1,1 0,-4.5A4.5,4.5 0 0,1 4.5,0Z" style="opacity: 0.5; stroke-width: 1px; fill: rgb(208, 169, 156); fill-opacity: 1; stroke: rgb(247, 247, 247); stroke-opacity: 1;"/><path class="point" transform="translate(202.5,119.39)" d="M4.5,0A4.5,4.5 0 1,1 0,-4.5A4.5,4.5 0 0,1 4.5,0Z" style="opacity: 0.5; stroke-width: 1px; fill: rgb(208, 169, 156); fill-opacity: 1; stroke: rgb(247, 247, 247); stroke-opacity: 1;"/><path class="point" transform="translate(202.5,112.09)" d="M4.5,0A4.5,4.5 0 1,1 0,-4.5A4.5,4.5 0 0,1 4.5,0Z" style="opacity: 0.5; stroke-width: 1px; fill: rgb(208, 169, 156); fill-opacity: 1; stroke: rgb(247, 247, 247); stroke-opacity: 1;"/><path class="point" transform="translate(202.5,112.08)" d="M4.5,0A4.5,4.5 0 1,1 0,-4.5A4.5,4.5 0 0,1 4.5,0Z" style="opacity: 0.5; stroke-width: 1px; fill: rgb(208, 169, 156); fill-opacity: 1; stroke: rgb(247, 247, 247); stroke-opacity: 1;"/><path class="point" transform="translate(202.5,110.81)" d="M4.5,0A4.5,4.5 0 1,1 0,-4.5A4.5,4.5 0 0,1 4.5,0Z" style="opacity: 0.5; stroke-width: 1px; fill: rgb(208, 169, 156); fill-opacity: 1; stroke: rgb(247, 247, 247); stroke-opacity: 1;"/><path class="point" transform="translate(202.5,110.3)" d="M4.5,0A4.5,4.5 0 1,1 0,-4.5A4.5,4.5 0 0,1 4.5,0Z" style="opacity: 0.5; stroke-width: 1px; fill: rgb(208, 169, 156); fill-opacity: 1; stroke: rgb(247, 247, 247); stroke-opacity: 1;"/><path class="point" transform="translate(202.5,106.63)" d="M4.5,0A4.5,4.5 0 1,1 0,-4.5A4.5,4.5 0 0,1 4.5,0Z" style="opacity: 0.5; stroke-width: 1px; fill: rgb(208, 169, 156); fill-opacity: 1; stroke: rgb(247, 247, 247); stroke-opacity: 1;"/><path class="point" transform="translate(202.5,28.1)" d="M4.5,0A4.5,4.5 0 1,1 0,-4.5A4.5,4.5 0 0,1 4.5,0Z" style="opacity: 0.5; stroke-width: 1px; fill: rgb(208, 169, 156); fill-opacity: 1; stroke: rgb(247, 247, 247); stroke-opacity: 1;"/><path class="point" transform="translate(202.5,21)" d="M4.5,0A4.5,4.5 0 1,1 0,-4.5A4.5,4.5 0 0,1 4.5,0Z" style="opacity: 0.5; stroke-width: 1px; fill: rgb(208, 169, 156); fill-opacity: 1; stroke: rgb(247, 247, 247); stroke-opacity: 1;"/></g></g><g class="trace boxes" style="opacity: 1;"><path class="box" d="M320.96,351.67H354.04M304.43,377.45H370.58V356.98L354.04,351.67L370.58,346.37V316.54H304.43V346.37L320.96,351.67L304.43,356.98ZM337.5,377.45V395.99M337.5,316.54V228.8M320.96,395.99H354.04M320.96,228.8H354.04" style="vector-effect: non-scaling-stroke; stroke-width: 2px; stroke: rgb(93, 131, 112); stroke-opacity: 1; fill: rgb(93, 131, 112); fill-opacity: 0.5;"/><g class="points"><path class="point" transform="translate(337.5,224.38)" d="M4.5,0A4.5,4.5 0 1,1 0,-4.5A4.5,4.5 0 0,1 4.5,0Z" style="opacity: 0.5; stroke-width: 1px; fill: rgb(93, 131, 112); fill-opacity: 1; stroke: rgb(247, 247, 247); stroke-opacity: 1;"/><path class="point" transform="translate(337.5,223.75)" d="M4.5,0A4.5,4.5 0 1,1 0,-4.5A4.5,4.5 0 0,1 4.5,0Z" style="opacity: 0.5; stroke-width: 1px; fill: rgb(93, 131, 112); fill-opacity: 1; stroke: rgb(247, 247, 247); stroke-opacity: 1;"/><path class="point" transform="translate(337.5,223.04)" d="M4.5,0A4.5,4.5 0 1,1 0,-4.5A4.5,4.5 0 0,1 4.5,0Z" style="opacity: 0.5; stroke-width: 1px; fill: rgb(93, 131, 112); fill-opacity: 1; stroke: rgb(247, 247, 247); stroke-opacity: 1;"/><path class="point" transform="translate(337.5,208.26)" d="M4.5,0A4.5,4.5 0 1,1 0,-4.5A4.5,4.5 0 0,1 4.5,0Z" style="opacity: 0.5; stroke-width: 1px; fill: rgb(93, 131, 112); fill-opacity: 1; stroke: rgb(247, 247, 247); stroke-opacity: 1;"/><path class="point" transform="translate(337.5,207.94)" d="M4.5,0A4.5,4.5 0 1,1 0,-4.5A4.5,4.5 0 0,1 4.5,0Z" style="opacity: 0.5; stroke-width: 1px; fill: rgb(93, 131, 112); fill-opacity: 1; stroke: rgb(247, 247, 247); stroke-opacity: 1;"/><path class="point" transform="translate(337.5,204.8)" d="M4.5,0A4.5,4.5 0 1,1 0,-4.5A4.5,4.5 0 0,1 4.5,0Z" style="opacity: 0.5; stroke-width: 1px; fill: rgb(93, 131, 112); fill-opacity: 1; stroke: rgb(247, 247, 247); stroke-opacity: 1;"/><path class="point" transform="translate(337.5,203.81)" d="M4.5,0A4.5,4.5 0 1,1 0,-4.5A4.5,4.5 0 0,1 4.5,0Z" style="opacity: 0.5; stroke-width: 1px; fill: rgb(93, 131, 112); fill-opacity: 1; stroke: rgb(247, 247, 247); stroke-opacity: 1;"/><path class="point" transform="translate(337.5,202.13)" d="M4.5,0A4.5,4.5 0 1,1 0,-4.5A4.5,4.5 0 0,1 4.5,0Z" style="opacity: 0.5; stroke-width: 1px; fill: rgb(93, 131, 112); fill-opacity: 1; stroke: rgb(247, 247, 247); stroke-opacity: 1;"/><path class="point" transform="translate(337.5,201.18)" d="M4.5,0A4.5,4.5 0 1,1 0,-4.5A4.5,4.5 0 0,1 4.5,0Z" style="opacity: 0.5; stroke-width: 1px; fill: rgb(93, 131, 112); fill-opacity: 1; stroke: rgb(247, 247, 247); stroke-opacity: 1;"/><path class="point" transform="translate(337.5,187.23)" d="M4.5,0A4.5,4.5 0 1,1 0,-4.5A4.5,4.5 0 0,1 4.5,0Z" style="opacity: 0.5; stroke-width: 1px; fill: rgb(93, 131, 112); fill-opacity: 1; stroke: rgb(247, 247, 247); stroke-opacity: 1;"/><path class="point" transform="translate(337.5,183.13)" d="M4.5,0A4.5,4.5 0 1,1 0,-4.5A4.5,4.5 0 0,1 4.5,0Z" style="opacity: 0.5; stroke-width: 1px; fill: rgb(93, 131, 112); fill-opacity: 1; stroke: rgb(247, 247, 247); stroke-opacity: 1;"/><path class="point" transform="translate(337.5,179.72)" d="M4.5,0A4.5,4.5 0 1,1 0,-4.5A4.5,4.5 0 0,1 4.5,0Z" style="opacity: 0.5; stroke-width: 1px; fill: rgb(93, 131, 112); fill-opacity: 1; stroke: rgb(247, 247, 247); stroke-opacity: 1;"/><path class="point" transform="translate(337.5,171.99)" d="M4.5,0A4.5,4.5 0 1,1 0,-4.5A4.5,4.5 0 0,1 4.5,0Z" style="opacity: 0.5; stroke-width: 1px; fill: rgb(93, 131, 112); fill-opacity: 1; stroke: rgb(247, 247, 247); stroke-opacity: 1;"/><path class="point" transform="translate(337.5,166.08)" d="M4.5,0A4.5,4.5 0 1,1 0,-4.5A4.5,4.5 0 0,1 4.5,0Z" style="opacity: 0.5; stroke-width: 1px; fill: rgb(93, 131, 112); fill-opacity: 1; stroke: rgb(247, 247, 247); stroke-opacity: 1;"/><path class="point" transform="translate(337.5,164.52)" d="M4.5,0A4.5,4.5 0 1,1 0,-4.5A4.5,4.5 0 0,1 4.5,0Z" style="opacity: 0.5; stroke-width: 1px; fill: rgb(93, 131, 112); fill-opacity: 1; stroke: rgb(247, 247, 247); stroke-opacity: 1;"/><path class="point" transform="translate(337.5,164.4)" d="M4.5,0A4.5,4.5 0 1,1 0,-4.5A4.5,4.5 0 0,1 4.5,0Z" style="opacity: 0.5; stroke-width: 1px; fill: rgb(93, 131, 112); fill-opacity: 1; stroke: rgb(247, 247, 247); stroke-opacity: 1;"/><path class="point" transform="translate(337.5,160.08)" d="M4.5,0A4.5,4.5 0 1,1 0,-4.5A4.5,4.5 0 0,1 4.5,0Z" style="opacity: 0.5; stroke-width: 1px; fill: rgb(93, 131, 112); fill-opacity: 1; stroke: rgb(247, 247, 247); stroke-opacity: 1;"/><path class="point" transform="translate(337.5,147.77)" d="M4.5,0A4.5,4.5 0 1,1 0,-4.5A4.5,4.5 0 0,1 4.5,0Z" style="opacity: 0.5; stroke-width: 1px; fill: rgb(93, 131, 112); fill-opacity: 1; stroke: rgb(247, 247, 247); stroke-opacity: 1;"/><path class="point" transform="translate(337.5,146.42)" d="M4.5,0A4.5,4.5 0 1,1 0,-4.5A4.5,4.5 0 0,1 4.5,0Z" style="opacity: 0.5; stroke-width: 1px; fill: rgb(93, 131, 112); fill-opacity: 1; stroke: rgb(247, 247, 247); stroke-opacity: 1;"/><path class="point" transform="translate(337.5,142.83)" d="M4.5,0A4.5,4.5 0 1,1 0,-4.5A4.5,4.5 0 0,1 4.5,0Z" style="opacity: 0.5; stroke-width: 1px; fill: rgb(93, 131, 112); fill-opacity: 1; stroke: rgb(247, 247, 247); stroke-opacity: 1;"/><path class="point" transform="translate(337.5,140.76)" d="M4.5,0A4.5,4.5 0 1,1 0,-4.5A4.5,4.5 0 0,1 4.5,0Z" style="opacity: 0.5; stroke-width: 1px; fill: rgb(93, 131, 112); fill-opacity: 1; stroke: rgb(247, 247, 247); stroke-opacity: 1;"/><path class="point" transform="translate(337.5,140.63)" d="M4.5,0A4.5,4.5 0 1,1 0,-4.5A4.5,4.5 0 0,1 4.5,0Z" style="opacity: 0.5; stroke-width: 1px; fill: rgb(93, 131, 112); fill-opacity: 1; stroke: rgb(247, 247, 247); stroke-opacity: 1;"/><path class="point" transform="translate(337.5,130.02)" d="M4.5,0A4.5,4.5 0 1,1 0,-4.5A4.5,4.5 0 0,1 4.5,0Z" style="opacity: 0.5; stroke-width: 1px; fill: rgb(93, 131, 112); fill-opacity: 1; stroke: rgb(247, 247, 247); stroke-opacity: 1;"/><path class="point" transform="translate(337.5,127.43)" d="M4.5,0A4.5,4.5 0 1,1 0,-4.5A4.5,4.5 0 0,1 4.5,0Z" style="opacity: 0.5; stroke-width: 1px; fill: rgb(93, 131, 112); fill-opacity: 1; stroke: rgb(247, 247, 247); stroke-opacity: 1;"/><path class="point" transform="translate(337.5,124.23)" d="M4.5,0A4.5,4.5 0 1,1 0,-4.5A4.5,4.5 0 0,1 4.5,0Z" style="opacity: 0.5; stroke-width: 1px; fill: rgb(93, 131, 112); fill-opacity: 1; stroke: rgb(247, 247, 247); stroke-opacity: 1;"/><path class="point" transform="translate(337.5,123.89)" d="M4.5,0A4.5,4.5 0 1,1 0,-4.5A4.5,4.5 0 0,1 4.5,0Z" style="opacity: 0.5; stroke-width: 1px; fill: rgb(93, 131, 112); fill-opacity: 1; stroke: rgb(247, 247, 247); stroke-opacity: 1;"/><path class="point" transform="translate(337.5,119.19)" d="M4.5,0A4.5,4.5 0 1,1 0,-4.5A4.5,4.5 0 0,1 4.5,0Z" style="opacity: 0.5; stroke-width: 1px; fill: rgb(93, 131, 112); fill-opacity: 1; stroke: rgb(247, 247, 247); stroke-opacity: 1;"/><path class="point" transform="translate(337.5,73.1)" d="M4.5,0A4.5,4.5 0 1,1 0,-4.5A4.5,4.5 0 0,1 4.5,0Z" style="opacity: 0.5; stroke-width: 1px; fill: rgb(93, 131, 112); fill-opacity: 1; stroke: rgb(247, 247, 247); stroke-opacity: 1;"/><path class="point" transform="translate(337.5,43.62)" d="M4.5,0A4.5,4.5 0 1,1 0,-4.5A4.5,4.5 0 0,1 4.5,0Z" style="opacity: 0.5; stroke-width: 1px; fill: rgb(93, 131, 112); fill-opacity: 1; stroke: rgb(247, 247, 247); stroke-opacity: 1;"/></g></g><g class="trace boxes" style="opacity: 1;"><path class="box" d="M455.96,345.08H489.04M439.43,374.52H505.58V351.16L489.04,345.08L505.58,339.01V304.9H439.43V339.01L455.96,345.08L439.43,351.16ZM472.5,374.52V395.54M472.5,304.9V202.24M455.96,395.54H489.04M455.96,202.24H489.04" style="vector-effect: non-scaling-stroke; stroke-width: 2px; stroke: rgb(108, 131, 155); stroke-opacity: 1; fill: rgb(108, 131, 155); fill-opacity: 0.5;"/><g class="points"><path class="point" transform="translate(472.5,199.09)" d="M4.5,0A4.5,4.5 0 1,1 0,-4.5A4.5,4.5 0 0,1 4.5,0Z" style="opacity: 0.5; stroke-width: 1px; fill: rgb(108, 131, 155); fill-opacity: 1; stroke: rgb(247, 247, 247); stroke-opacity: 1;"/><path class="point" transform="translate(472.5,196.9)" d="M4.5,0A4.5,4.5 0 1,1 0,-4.5A4.5,4.5 0 0,1 4.5,0Z" style="opacity: 0.5; stroke-width: 1px; fill: rgb(108, 131, 155); fill-opacity: 1; stroke: rgb(247, 247, 247); stroke-opacity: 1;"/><path class="point" transform="translate(472.5,194.17)" d="M4.5,0A4.5,4.5 0 1,1 0,-4.5A4.5,4.5 0 0,1 4.5,0Z" style="opacity: 0.5; stroke-width: 1px; fill: rgb(108, 131, 155); fill-opacity: 1; stroke: rgb(247, 247, 247); stroke-opacity: 1;"/><path class="point" transform="translate(472.5,193.7)" d="M4.5,0A4.5,4.5 0 1,1 0,-4.5A4.5,4.5 0 0,1 4.5,0Z" style="opacity: 0.5; stroke-width: 1px; fill: rgb(108, 131, 155); fill-opacity: 1; stroke: rgb(247, 247, 247); stroke-opacity: 1;"/><path class="point" transform="translate(472.5,187.42)" d="M4.5,0A4.5,4.5 0 1,1 0,-4.5A4.5,4.5 0 0,1 4.5,0Z" style="opacity: 0.5; stroke-width: 1px; fill: rgb(108, 131, 155); fill-opacity: 1; stroke: rgb(247, 247, 247); stroke-opacity: 1;"/><path class="point" transform="translate(472.5,180.89)" d="M4.5,0A4.5,4.5 0 1,1 0,-4.5A4.5,4.5 0 0,1 4.5,0Z" style="opacity: 0.5; stroke-width: 1px; fill: rgb(108, 131, 155); fill-opacity: 1; stroke: rgb(247, 247, 247); stroke-opacity: 1;"/><path class="point" transform="translate(472.5,178.86)" d="M4.5,0A4.5,4.5 0 1,1 0,-4.5A4.5,4.5 0 0,1 4.5,0Z" style="opacity: 0.5; stroke-width: 1px; fill: rgb(108, 131, 155); fill-opacity: 1; stroke: rgb(247, 247, 247); stroke-opacity: 1;"/><path class="point" transform="translate(472.5,178.29)" d="M4.5,0A4.5,4.5 0 1,1 0,-4.5A4.5,4.5 0 0,1 4.5,0Z" style="opacity: 0.5; stroke-width: 1px; fill: rgb(108, 131, 155); fill-opacity: 1; stroke: rgb(247, 247, 247); stroke-opacity: 1;"/><path class="point" transform="translate(472.5,173.4)" d="M4.5,0A4.5,4.5 0 1,1 0,-4.5A4.5,4.5 0 0,1 4.5,0Z" style="opacity: 0.5; stroke-width: 1px; fill: rgb(108, 131, 155); fill-opacity: 1; stroke: rgb(247, 247, 247); stroke-opacity: 1;"/><path class="point" transform="translate(472.5,170.17)" d="M4.5,0A4.5,4.5 0 1,1 0,-4.5A4.5,4.5 0 0,1 4.5,0Z" style="opacity: 0.5; stroke-width: 1px; fill: rgb(108, 131, 155); fill-opacity: 1; stroke: rgb(247, 247, 247); stroke-opacity: 1;"/><path class="point" transform="translate(472.5,169.7)" d="M4.5,0A4.5,4.5 0 1,1 0,-4.5A4.5,4.5 0 0,1 4.5,0Z" style="opacity: 0.5; stroke-width: 1px; fill: rgb(108, 131, 155); fill-opacity: 1; stroke: rgb(247, 247, 247); stroke-opacity: 1;"/><path class="point" transform="translate(472.5,167.1)" d="M4.5,0A4.5,4.5 0 1,1 0,-4.5A4.5,4.5 0 0,1 4.5,0Z" style="opacity: 0.5; stroke-width: 1px; fill: rgb(108, 131, 155); fill-opacity: 1; stroke: rgb(247, 247, 247); stroke-opacity: 1;"/><path class="point" transform="translate(472.5,166.85)" d="M4.5,0A4.5,4.5 0 1,1 0,-4.5A4.5,4.5 0 0,1 4.5,0Z" style="opacity: 0.5; stroke-width: 1px; fill: rgb(108, 131, 155); fill-opacity: 1; stroke: rgb(247, 247, 247); stroke-opacity: 1;"/><path class="point" transform="translate(472.5,165.78)" d="M4.5,0A4.5,4.5 0 1,1 0,-4.5A4.5,4.5 0 0,1 4.5,0Z" style="opacity: 0.5; stroke-width: 1px; fill: rgb(108, 131, 155); fill-opacity: 1; stroke: rgb(247, 247, 247); stroke-opacity: 1;"/><path class="point" transform="translate(472.5,158.97)" d="M4.5,0A4.5,4.5 0 1,1 0,-4.5A4.5,4.5 0 0,1 4.5,0Z" style="opacity: 0.5; stroke-width: 1px; fill: rgb(108, 131, 155); fill-opacity: 1; stroke: rgb(247, 247, 247); stroke-opacity: 1;"/><path class="point" transform="translate(472.5,158.18)" d="M4.5,0A4.5,4.5 0 1,1 0,-4.5A4.5,4.5 0 0,1 4.5,0Z" style="opacity: 0.5; stroke-width: 1px; fill: rgb(108, 131, 155); fill-opacity: 1; stroke: rgb(247, 247, 247); stroke-opacity: 1;"/><path class="point" transform="translate(472.5,157.8)" d="M4.5,0A4.5,4.5 0 1,1 0,-4.5A4.5,4.5 0 0,1 4.5,0Z" style="opacity: 0.5; stroke-width: 1px; fill: rgb(108, 131, 155); fill-opacity: 1; stroke: rgb(247, 247, 247); stroke-opacity: 1;"/><path class="point" transform="translate(472.5,152.84)" d="M4.5,0A4.5,4.5 0 1,1 0,-4.5A4.5,4.5 0 0,1 4.5,0Z" style="opacity: 0.5; stroke-width: 1px; fill: rgb(108, 131, 155); fill-opacity: 1; stroke: rgb(247, 247, 247); stroke-opacity: 1;"/><path class="point" transform="translate(472.5,151.68)" d="M4.5,0A4.5,4.5 0 1,1 0,-4.5A4.5,4.5 0 0,1 4.5,0Z" style="opacity: 0.5; stroke-width: 1px; fill: rgb(108, 131, 155); fill-opacity: 1; stroke: rgb(247, 247, 247); stroke-opacity: 1;"/><path class="point" transform="translate(472.5,150.52)" d="M4.5,0A4.5,4.5 0 1,1 0,-4.5A4.5,4.5 0 0,1 4.5,0Z" style="opacity: 0.5; stroke-width: 1px; fill: rgb(108, 131, 155); fill-opacity: 1; stroke: rgb(247, 247, 247); stroke-opacity: 1;"/><path class="point" transform="translate(472.5,144.79)" d="M4.5,0A4.5,4.5 0 1,1 0,-4.5A4.5,4.5 0 0,1 4.5,0Z" style="opacity: 0.5; stroke-width: 1px; fill: rgb(108, 131, 155); fill-opacity: 1; stroke: rgb(247, 247, 247); stroke-opacity: 1;"/><path class="point" transform="translate(472.5,141.78)" d="M4.5,0A4.5,4.5 0 1,1 0,-4.5A4.5,4.5 0 0,1 4.5,0Z" style="opacity: 0.5; stroke-width: 1px; fill: rgb(108, 131, 155); fill-opacity: 1; stroke: rgb(247, 247, 247); stroke-opacity: 1;"/><path class="point" transform="translate(472.5,136.42)" d="M4.5,0A4.5,4.5 0 1,1 0,-4.5A4.5,4.5 0 0,1 4.5,0Z" style="opacity: 0.5; stroke-width: 1px; fill: rgb(108, 131, 155); fill-opacity: 1; stroke: rgb(247, 247, 247); stroke-opacity: 1;"/><path class="point" transform="translate(472.5,129.97)" d="M4.5,0A4.5,4.5 0 1,1 0,-4.5A4.5,4.5 0 0,1 4.5,0Z" style="opacity: 0.5; stroke-width: 1px; fill: rgb(108, 131, 155); fill-opacity: 1; stroke: rgb(247, 247, 247); stroke-opacity: 1;"/><path class="point" transform="translate(472.5,126.68)" d="M4.5,0A4.5,4.5 0 1,1 0,-4.5A4.5,4.5 0 0,1 4.5,0Z" style="opacity: 0.5; stroke-width: 1px; fill: rgb(108, 131, 155); fill-opacity: 1; stroke: rgb(247, 247, 247); stroke-opacity: 1;"/><path class="point" transform="translate(472.5,116.78)" d="M4.5,0A4.5,4.5 0 1,1 0,-4.5A4.5,4.5 0 0,1 4.5,0Z" style="opacity: 0.5; stroke-width: 1px; fill: rgb(108, 131, 155); fill-opacity: 1; stroke: rgb(247, 247, 247); stroke-opacity: 1;"/><path class="point" transform="translate(472.5,113.03)" d="M4.5,0A4.5,4.5 0 1,1 0,-4.5A4.5,4.5 0 0,1 4.5,0Z" style="opacity: 0.5; stroke-width: 1px; fill: rgb(108, 131, 155); fill-opacity: 1; stroke: rgb(247, 247, 247); stroke-opacity: 1;"/><path class="point" transform="translate(472.5,112.84)" d="M4.5,0A4.5,4.5 0 1,1 0,-4.5A4.5,4.5 0 0,1 4.5,0Z" style="opacity: 0.5; stroke-width: 1px; fill: rgb(108, 131, 155); fill-opacity: 1; stroke: rgb(247, 247, 247); stroke-opacity: 1;"/><path class="point" transform="translate(472.5,52.37)" d="M4.5,0A4.5,4.5 0 1,1 0,-4.5A4.5,4.5 0 0,1 4.5,0Z" style="opacity: 0.5; stroke-width: 1px; fill: rgb(108, 131, 155); fill-opacity: 1; stroke: rgb(247, 247, 247); stroke-opacity: 1;"/></g></g></g></g><g class="overplot"/><path class="xlines-above crisp" d="M0,0" style="fill: none;"/><path class="ylines-above crisp" d="M0,0" style="fill: none;"/><g class="overlines-above"/><g class="xaxislayer-above"><g class="xtick"><text text-anchor="middle" x="0" y="533" transform="translate(147.5,0)" style="font-family: 'Open Sans', verdana, arial, sans-serif; font-size: 12px; fill: rgb(48, 48, 48); fill-opacity: 1; white-space: pre; opacity: 1;">Southwest</text></g><g class="xtick"><text text-anchor="middle" x="0" y="533" transform="translate(282.5,0)" style="font-family: 'Open Sans', verdana, arial, sans-serif; font-size: 12px; fill: rgb(48, 48, 48); fill-opacity: 1; white-space: pre; opacity: 1;">Southeast</text></g><g class="xtick"><text text-anchor="middle" x="0" y="533" transform="translate(417.5,0)" style="font-family: 'Open Sans', verdana, arial, sans-serif; font-size: 12px; fill: rgb(48, 48, 48); fill-opacity: 1; white-space: pre; opacity: 1;">Northwest</text></g><g class="xtick"><text text-anchor="middle" x="0" y="533" transform="translate(552.5,0)" style="font-family: 'Open Sans', verdana, arial, sans-serif; font-size: 12px; fill: rgb(48, 48, 48); fill-opacity: 1; white-space: pre; opacity: 1;">Northeast</text></g></g><g class="yaxislayer-above"><g class="ytick"><text text-anchor="end" x="79" y="4.199999999999999" transform="translate(0,505.77)" style="font-family: 'Open Sans', verdana, arial, sans-serif; font-size: 12px; fill: rgb(48, 48, 48); fill-opacity: 1; white-space: pre; opacity: 1;">0</text></g><g class="ytick"><text text-anchor="end" x="79" y="4.199999999999999" style="font-family: 'Open Sans', verdana, arial, sans-serif; font-size: 12px; fill: rgb(48, 48, 48); fill-opacity: 1; white-space: pre; opacity: 1;" transform="translate(0,445.43)">10k</text></g><g class="ytick"><text text-anchor="end" x="79" y="4.199999999999999" style="font-family: 'Open Sans', verdana, arial, sans-serif; font-size: 12px; fill: rgb(48, 48, 48); fill-opacity: 1; white-space: pre; opacity: 1;" transform="translate(0,385.1)">20k</text></g><g class="ytick"><text text-anchor="end" x="79" y="4.199999999999999" style="font-family: 'Open Sans', verdana, arial, sans-serif; font-size: 12px; fill: rgb(48, 48, 48); fill-opacity: 1; white-space: pre; opacity: 1;" transform="translate(0,324.76)">30k</text></g><g class="ytick"><text text-anchor="end" x="79" y="4.199999999999999" style="font-family: 'Open Sans', verdana, arial, sans-serif; font-size: 12px; fill: rgb(48, 48, 48); fill-opacity: 1; white-space: pre; opacity: 1;" transform="translate(0,264.41999999999996)">40k</text></g><g class="ytick"><text text-anchor="end" x="79" y="4.199999999999999" style="font-family: 'Open Sans', verdana, arial, sans-serif; font-size: 12px; fill: rgb(48, 48, 48); fill-opacity: 1; white-space: pre; opacity: 1;" transform="translate(0,204.09)">50k</text></g><g class="ytick"><text text-anchor="end" x="79" y="4.199999999999999" style="font-family: 'Open Sans', verdana, arial, sans-serif; font-size: 12px; fill: rgb(48, 48, 48); fill-opacity: 1; white-space: pre; opacity: 1;" transform="translate(0,143.75)">60k</text></g></g><g class="overaxes-above"/></g></g><g class="polarlayer"/><g class="smithlayer"/><g class="ternarylayer"/><g class="geolayer"/><g class="funnelarealayer"/><g class="pielayer"/><g class="iciclelayer"/><g class="treemaplayer"/><g class="sunburstlayer"/><g class="glimages"/><defs id="topdefs-66e94d"><g class="clips"/></defs><g class="layer-above"><g class="imagelayer"/><g class="shapelayer"/></g><g class="infolayer"><g class="g-gtitle"><text class="gtitle" x="35" y="50" text-anchor="start" dy="0em" style="font-family: 'Open Sans', verdana, arial, sans-serif; font-size: 17px; fill: rgb(48, 48, 48); opacity: 1; font-weight: normal; white-space: pre;">Distribution of Insurance Costs by Region</text></g><g class="g-xtitle"><text class="xtitle" x="350" y="560.471875" text-anchor="middle" style="font-family: 'Open Sans', verdana, arial, sans-serif; font-size: 14px; fill: rgb(48, 48, 48); opacity: 1; font-weight: normal; white-space: pre;">Region</text></g><g class="g-ytitle"><text class="ytitle" transform="rotate(-90,31.840625000000003,310)" x="31.840625000000003" y="310" text-anchor="middle" style="font-family: 'Open Sans', verdana, arial, sans-serif; font-size: 14px; fill: rgb(48, 48, 48); opacity: 1; font-weight: normal; white-space: pre;">Claim Amount, $</text></g></g></svg>