<svg class="main-svg" xmlns="http://www.w3.org/2000/svg" xmlns:xlink="http://www.w3.org/1999/xlink" width="700" height="500" style="" viewBox="0 0 700 500"><rect x="0" y="0" width="700" height="500" style="fill: rgb(255, 255, 255); fill-opacity: 1;"/><defs id="defs-85f23c"><g class="clips"><clipPath id="clip85f23cxyplot" class="plotclip"><rect width="540" height="234.43200000000002"/></clipPath><clipPath id="clip85f23cx2y2plot" class="plotclip"><rect width="540" height="82.368"/></clipPath><clipPath class="axesclip" id="clip85f23cx"><rect x="80" y="0" width="540" height="500"/></clipPath><clipPath class="axesclip" id="clip85f23cy"><rect x="0" y="185.56799999999998" width="700" height="234.43200000000002"/></clipPath><clipPath class="axesclip" id="clip85f23cxy"><rect x="80" y="185.56799999999998" width="540" height="234.43200000000002"/></clipPath><clipPath class="axesclip" id="clip85f23cy2"><rect x="0" y="100" width="700" height="82.368"/></clipPath><clipPath class="axesclip" id="clip85f23cxy2"><rect x="80" y="100" width="540" height="82.368"/></clipPath><clipPath class="axesclip" id="clip85f23cx2"><rect x="80" y="0" width="540" height="500"/></clipPath><clipPath class="axesclip" id="clip85f23cx2y"><rect x="80" y="185.56799999999998" width="540" height="234.43200000000002"/></clipPath><clipPath class="axesclip" id="clip85f23cx2y2"><rect x="80" y="100" width="540" height="82.368"/></clipPath></g><g class="gradients"/><g class="patterns"/></defs><g class="bglayer"/><g class="layer-below"><g class="imagelayer"/><g class="shapelayer"/></g><g class="cartesianlayer"><g class="subplot xy"><g class="layer-subplot"><g class="shapelayer"/><g class="imagelayer"/></g><g class="gridlayer"><g class="x"/><g class="y"><path class="ygrid crisp" transform="translate(0,366.448)" d="M80,0h540" style="stroke: rgb(234, 234, 234); stroke-opacity: 1; stroke-width: 1px;"/><path class="ygrid crisp" transform="translate(0,312.89799999999997)" d="M80,0h540" style="stroke: rgb(234, 234, 234); stroke-opacity: 1; stroke-width: 1px;"/><path class="ygrid crisp" transform="translate(0,259.34799999999996)" d="M80,0h540" style="stroke: rgb(234, 234, 234); stroke-opacity: 1; stroke-width: 1px;"/><path class="ygrid crisp" transform="translate(0,205.79799999999997)" d="M80,0h540" style="stroke: rgb(234, 234, 234); stroke-opacity: 1; stroke-width: 1px;"/></g></g><g class="zerolinelayer"><path class="xzl zl crisp" transform="translate(98.3,0)" d="M0,185.56799999999998v234.43200000000002" style="stroke: rgb(234, 234, 234); stroke-opacity: 1; stroke-width: 2px;"/><path class="yzl zl crisp" transform="translate(0,419.998)" d="M80,0h540" style="stroke: rgb(234, 234, 234); stroke-opacity: 1; stroke-width: 2px;"/></g><path class="xlines-below"/><path class="ylines-below"/><g class="overlines-below"/><g class="xaxislayer-below"/><g class="yaxislayer-below"/><g class="overaxes-below"/><g class="plot" transform="translate(80,185.56799999999998)" clip-path="url(#clip85f23cxyplot)"><g class="barlayer mlayer"><g class="trace bars" shape-rendering="crispEdges" style="opacity: 1;"><g class="points"><g class="point"><path d="M111.39,234.43V219.77H126.9V234.43Z" style="vector-effect: non-scaling-stroke; opacity: 0.7; stroke-width: 0px; fill: rgb(177, 75, 81); fill-opacity: 1;"/></g><g class="point"><path d="M126.9,234.43V190.46H142.42V234.43Z" style="vector-effect: non-scaling-stroke; opacity: 0.7; stroke-width: 0px; fill: rgb(177, 75, 81); fill-opacity: 1;"/></g><g class="point"><path d="M142.42,234.43V117.17H157.93V234.43Z" style="vector-effect: non-scaling-stroke; opacity: 0.7; stroke-width: 0px; fill: rgb(177, 75, 81); fill-opacity: 1;"/></g><g class="point"><path d="M157.93,234.43V107.39H173.45V234.43Z" style="vector-effect: non-scaling-stroke; opacity: 0.7; stroke-width: 0px; fill: rgb(177, 75, 81); fill-opacity: 1;"/></g><g class="point"><path d="M173.45,234.43V131.82H188.96V234.43Z" style="vector-effect: non-scaling-stroke; opacity: 0.7; stroke-width: 0px; fill: rgb(177, 75, 81); fill-opacity: 1;"/></g><g class="point"><path d="M188.96,234.43V166.03H204.48V234.43Z" style="vector-effect: non-scaling-stroke; opacity: 0.7; stroke-width: 0px; fill: rgb(177, 75, 81); fill-opacity: 1;"/></g><g class="point"><path d="M204.48,234.43V175.8H219.99V234.43Z" style="vector-effect: non-scaling-stroke; opacity: 0.7; stroke-width: 0px; fill: rgb(177, 75, 81); fill-opacity: 1;"/></g><g class="point"><path d="M219.99,234.43V200.23H235.51V234.43Z" style="vector-effect: non-scaling-stroke; opacity: 0.7; stroke-width: 0px; fill: rgb(177, 75, 81); fill-opacity: 1;"/></g><g class="point"><path d="M235.51,234.43V205.12H251.02V234.43Z" style="vector-effect: non-scaling-stroke; opacity: 0.7; stroke-width: 0px; fill: rgb(177, 75, 81); fill-opacity: 1;"/></g><g class="point"><path d="M251.02,234.43V224.66H266.54V234.43Z" style="vector-effect: non-scaling-stroke; opacity: 0.7; stroke-width: 0px; fill: rgb(177, 75, 81); fill-opacity: 1;"/></g><g class="point"><path d="M266.54,234.43V190.46H282.05V234.43Z" style="vector-effect: non-scaling-stroke; opacity: 0.7; stroke-width: 0px; fill: rgb(177, 75, 81); fill-opacity: 1;"/></g><g class="point"><path d="M282.05,234.43V156.26H297.57V234.43Z" style="vector-effect: non-scaling-stroke; opacity: 0.7; stroke-width: 0px; fill: rgb(177, 75, 81); fill-opacity: 1;"/></g><g class="point"><path d="M297.57,234.43V126.94H313.08V234.43Z" style="vector-effect: non-scaling-stroke; opacity: 0.7; stroke-width: 0px; fill: rgb(177, 75, 81); fill-opacity: 1;"/></g><g class="point"><path d="M313.08,234.43V117.17H328.6V234.43Z" style="vector-effect: non-scaling-stroke; opacity: 0.7; stroke-width: 0px; fill: rgb(177, 75, 81); fill-opacity: 1;"/></g><g class="point"><path d="M328.6,234.43V151.37H344.11V234.43Z" style="vector-effect: non-scaling-stroke; opacity: 0.7; stroke-width: 0px; fill: rgb(177, 75, 81); fill-opacity: 1;"/></g><g class="point"><path d="M344.11,234.43V151.37H359.63V234.43Z" style="vector-effect: non-scaling-stroke; opacity: 0.7; stroke-width: 0px; fill: rgb(177, 75, 81); fill-opacity: 1;"/></g><g class="point"><path d="M359.63,234.43V180.69H375.14V234.43Z" style="vector-effect: non-scaling-stroke; opacity: 0.7; stroke-width: 0px; fill: rgb(177, 75, 81); fill-opacity: 1;"/></g><g class="point"><path d="M375.14,234.43V146.48H390.66V234.43Z" style="vector-effect: non-scaling-stroke; opacity: 0.7; stroke-width: 0px; fill: rgb(177, 75, 81); fill-opacity: 1;"/></g><g class="point"><path d="M390.66,234.43V190.46H406.18V234.43Z" style="vector-effect: non-scaling-stroke; opacity: 0.7; stroke-width: 0px; fill: rgb(177, 75, 81); fill-opacity: 1;"/></g><g class="point"><path d="M406.18,234.43V229.55H421.69V234.43Z" style="vector-effect: non-scaling-stroke; opacity: 0.7; stroke-width: 0px; fill: rgb(177, 75, 81); fill-opacity: 1;"/></g><g class="point"><path d="M421.69,234.43V229.55H437.21V234.43Z" style="vector-effect: non-scaling-stroke; opacity: 0.7; stroke-width: 0px; fill: rgb(177, 75, 81); fill-opacity: 1;"/></g><g class="point"><path d="M437.21,234.43V229.55H452.72V234.43Z" style="vector-effect: non-scaling-stroke; opacity: 0.7; stroke-width: 0px; fill: rgb(177, 75, 81); fill-opacity: 1;"/></g><g class="point"><path d="M0,0Z" style="vector-effect: non-scaling-stroke; opacity: 0.7; stroke-width: 0px; fill: rgb(177, 75, 81); fill-opacity: 1;"/></g><g class="point"><path d="M468.24,234.43V229.55H483.75V234.43Z" style="vector-effect: non-scaling-stroke; opacity: 0.7; stroke-width: 0px; fill: rgb(177, 75, 81); fill-opacity: 1;"/></g><g class="point"><path d="M483.75,234.43V229.55H499.27V234.43Z" style="vector-effect: non-scaling-stroke; opacity: 0.7; stroke-width: 0px; fill: rgb(177, 75, 81); fill-opacity: 1;"/></g><g class="point"><path d="M499.27,234.43V224.66H514.78V234.43Z" style="vector-effect: non-scaling-stroke; opacity: 0.7; stroke-width: 0px; fill: rgb(177, 75, 81); fill-opacity: 1;"/></g></g></g><g class="trace bars" shape-rendering="crispEdges" style="opacity: 1;"><g class="points"><g class="point"><path d="M18.3,234.43V118.67H33.81V234.43Z" style="vector-effect: non-scaling-stroke; opacity: 0.7; stroke-width: 0px; fill: rgb(183, 162, 148); fill-opacity: 1;"/></g><g class="point"><path d="M33.81,234.43V11.72H49.33V234.43Z" style="vector-effect: non-scaling-stroke; opacity: 0.7; stroke-width: 0px; fill: rgb(183, 162, 148); fill-opacity: 1;"/></g><g class="point"><path d="M49.33,234.43V33.11H64.84V234.43Z" style="vector-effect: non-scaling-stroke; opacity: 0.7; stroke-width: 0px; fill: rgb(183, 162, 148); fill-opacity: 1;"/></g><g class="point"><path d="M64.84,234.43V57.02H80.36V234.43Z" style="vector-effect: non-scaling-stroke; opacity: 0.7; stroke-width: 0px; fill: rgb(183, 162, 148); fill-opacity: 1;"/></g><g class="point"><path d="M80.36,234.43V55.76H95.87V234.43Z" style="vector-effect: non-scaling-stroke; opacity: 0.7; stroke-width: 0px; fill: rgb(183, 162, 148); fill-opacity: 1;"/></g><g class="point"><path d="M95.87,234.43V65.83H111.39V234.43Z" style="vector-effect: non-scaling-stroke; opacity: 0.7; stroke-width: 0px; fill: rgb(183, 162, 148); fill-opacity: 1;"/></g><g class="point"><path d="M111.39,234.43V109.87H126.9V234.43Z" style="vector-effect: non-scaling-stroke; opacity: 0.7; stroke-width: 0px; fill: rgb(183, 162, 148); fill-opacity: 1;"/></g><g class="point"><path d="M126.9,234.43V190.39H142.42V234.43Z" style="vector-effect: non-scaling-stroke; opacity: 0.7; stroke-width: 0px; fill: rgb(183, 162, 148); fill-opacity: 1;"/></g><g class="point"><path d="M142.42,234.43V223.11H157.93V234.43Z" style="vector-effect: non-scaling-stroke; opacity: 0.7; stroke-width: 0px; fill: rgb(183, 162, 148); fill-opacity: 1;"/></g><g class="point"><path d="M157.93,234.43V216.82H173.45V234.43Z" style="vector-effect: non-scaling-stroke; opacity: 0.7; stroke-width: 0px; fill: rgb(183, 162, 148); fill-opacity: 1;"/></g><g class="point"><path d="M173.45,234.43V218.07H188.96V234.43Z" style="vector-effect: non-scaling-stroke; opacity: 0.7; stroke-width: 0px; fill: rgb(183, 162, 148); fill-opacity: 1;"/></g><g class="point"><path d="M188.96,234.43V224.37H204.48V234.43Z" style="vector-effect: non-scaling-stroke; opacity: 0.7; stroke-width: 0px; fill: rgb(183, 162, 148); fill-opacity: 1;"/></g><g class="point"><path d="M204.48,234.43V219.33H219.99V234.43Z" style="vector-effect: non-scaling-stroke; opacity: 0.7; stroke-width: 0px; fill: rgb(183, 162, 148); fill-opacity: 1;"/></g><g class="point"><path d="M219.99,234.43V219.33H235.51V234.43Z" style="vector-effect: non-scaling-stroke; opacity: 0.7; stroke-width: 0px; fill: rgb(183, 162, 148); fill-opacity: 1;"/></g><g class="point"><path d="M235.51,234.43V226.88H251.02V234.43Z" style="vector-effect: non-scaling-stroke; opacity: 0.7; stroke-width: 0px; fill: rgb(183, 162, 148); fill-opacity: 1;"/></g><g class="point"><path d="M251.02,234.43V228.14H266.54V234.43Z" style="vector-effect: non-scaling-stroke; opacity: 0.7; stroke-width: 0px; fill: rgb(183, 162, 148); fill-opacity: 1;"/></g><g class="point"><path d="M266.54,234.43V231.92H282.05V234.43Z" style="vector-effect: non-scaling-stroke; opacity: 0.7; stroke-width: 0px; fill: rgb(183, 162, 148); fill-opacity: 1;"/></g><g class="point"><path d="M282.05,234.43V233.17H297.57V234.43Z" style="vector-effect: non-scaling-stroke; opacity: 0.7; stroke-width: 0px; fill: rgb(183, 162, 148); fill-opacity: 1;"/></g><g class="point"><path d="M297.57,234.43V231.92H313.08V234.43Z" style="vector-effect: non-scaling-stroke; opacity: 0.7; stroke-width: 0px; fill: rgb(183, 162, 148); fill-opacity: 1;"/></g></g></g></g></g><g class="overplot"/><path class="xlines-above crisp" style="fill: none;" d="M0,0"/><path class="ylines-above crisp" style="fill: none;" d="M0,0"/><g class="overlines-above"/><g class="xaxislayer-above"><g class="xtick"><text text-anchor="middle" x="0" y="433" transform="translate(98.3,0)" style="font-family: 'Open Sans', verdana, arial, sans-serif; font-size: 12px; fill: rgb(48, 48, 48); fill-opacity: 1; white-space: pre; opacity: 1;">0</text></g><g class="xtick"><text text-anchor="middle" x="0" y="433" style="font-family: 'Open Sans', verdana, arial, sans-serif; font-size: 12px; fill: rgb(48, 48, 48); fill-opacity: 1; white-space: pre; opacity: 1;" transform="translate(175.87,0)">10k</text></g><g class="xtick"><text text-anchor="middle" x="0" y="433" style="font-family: 'Open Sans', verdana, arial, sans-serif; font-size: 12px; fill: rgb(48, 48, 48); fill-opacity: 1; white-space: pre; opacity: 1;" transform="translate(253.45,0)">20k</text></g><g class="xtick"><text text-anchor="middle" x="0" y="433" style="font-family: 'Open Sans', verdana, arial, sans-serif; font-size: 12px; fill: rgb(48, 48, 48); fill-opacity: 1; white-space: pre; opacity: 1;" transform="translate(331.02,0)">30k</text></g><g class="xtick"><text text-anchor="middle" x="0" y="433" style="font-family: 'Open Sans', verdana, arial, sans-serif; font-size: 12px; fill: rgb(48, 48, 48); fill-opacity: 1; white-space: pre; opacity: 1;" transform="translate(408.6,0)">40k</text></g><g class="xtick"><text text-anchor="middle" x="0" y="433" style="font-family: 'Open Sans', verdana, arial, sans-serif; font-size: 12px; fill: rgb(48, 48, 48); fill-opacity: 1; white-space: pre; opacity: 1;" transform="translate(486.18,0)">50k</text></g><g class="xtick"><text text-anchor="middle" x="0" y="433" style="font-family: 'Open Sans', verdana, arial, sans-serif; font-size: 12px; fill: rgb(48, 48, 48); fill-opacity: 1; white-space: pre; opacity: 1;" transform="translate(563.75,0)">60k</text></g></g><g class="yaxislayer-above"><g class="ytick"><text text-anchor="end" x="79" y="4.199999999999999" transform="translate(0,419.998)" style="font-family: 'Open Sans', verdana, arial, sans-serif; font-size: 12px; fill: rgb(48, 48, 48); fill-opacity: 1; white-space: pre; opacity: 1;">0</text></g><g class="ytick"><text text-anchor="end" x="79" y="4.199999999999999" style="font-family: 'Open Sans', verdana, arial, sans-serif; font-size: 12px; fill: rgb(48, 48, 48); fill-opacity: 1; white-space: pre; opacity: 1;" transform="translate(0,366.448)">20μ</text></g><g class="ytick"><text text-anchor="end" x="79" y="4.199999999999999" style="font-family: 'Open Sans', verdana, arial, sans-serif; font-size: 12px; fill: rgb(48, 48, 48); fill-opacity: 1; white-space: pre; opacity: 1;" transform="translate(0,312.89799999999997)">40μ</text></g><g class="ytick"><text text-anchor="end" x="79" y="4.199999999999999" style="font-family: 'Open Sans', verdana, arial, sans-serif; font-size: 12px; fill: rgb(48, 48, 48); fill-opacity: 1; white-space: pre; opacity: 1;" transform="translate(0,259.34799999999996)">60μ</text></g><g class="ytick"><text text-anchor="end" x="79" y="4.199999999999999" style="font-family: 'Open Sans', verdana, arial, sans-serif; font-size: 12px; fill: rgb(48, 48, 48); fill-opacity: 1; white-space: pre; opacity: 1;" transform="translate(0,205.79799999999997)">80μ</text></g></g><g class="overaxes-above"/></g><g class="subplot x2y2"><g class="layer-subplot"><g class="shapelayer"/><g class="imagelayer"/></g><g class="gridlayer"><g class="x2"/><g class="y2"/></g><g class="zerolinelayer"><path class="x2zl zl crisp" transform="translate(98.3,0)" d="M0,100v82.368" style="stroke: rgb(234, 234, 234); stroke-opacity: 1; stroke-width: 2px;"/></g><path class="xlines-below"/><path class="ylines-below"/><g class="overlines-below"/><g class="xaxislayer-below"/><g class="yaxislayer-below"/><g class="overaxes-below"/><g class="plot" transform="translate(80,100)" clip-path="url(#clip85f23cx2y2plot)"><g class="boxlayer mlayer"><g class="trace boxes" style="opacity: 1;"><path class="box" d="M285.59,66.82V56.73M179.45,71.87V51.69H270.69L285.59,56.73L300.5,51.69H336.62V71.87H300.5L285.59,66.82L270.69,71.87ZM179.45,61.78H117.82M336.62,61.78H513M117.82,66.82V56.73M513,66.82V56.73" style="vector-effect: non-scaling-stroke; stroke-width: 2px; stroke: rgb(177, 75, 81); stroke-opacity: 1; fill: rgb(177, 75, 81); fill-opacity: 0.5;"/><g class="points"/></g><g class="trace boxes" style="opacity: 1;"><path class="box" d="M75.28,25.64V15.55M49.21,30.68V10.5H72.52L75.28,15.55L78.03,10.5H106.45V30.68H78.03L75.28,25.64L72.52,30.68ZM49.21,20.59H27M106.45,20.59H192.03M27,25.64V15.55M192.03,25.64V15.55" style="vector-effect: non-scaling-stroke; stroke-width: 2px; stroke: rgb(183, 162, 148); stroke-opacity: 1; fill: rgb(183, 162, 148); fill-opacity: 0.5;"/><g class="points"><path class="point" transform="translate(192.79,20.59)" d="M3,0A3,3 0 1,1 0,-3A3,3 0 0,1 3,0Z" style="opacity: 1; stroke-width: 0px; fill: rgb(183, 162, 148); fill-opacity: 1;"/><path class="point" transform="translate(197.07,20.59)" d="M3,0A3,3 0 1,1 0,-3A3,3 0 0,1 3,0Z" style="opacity: 1; stroke-width: 0px; fill: rgb(183, 162, 148); fill-opacity: 1;"/><path class="point" transform="translate(197.36,20.59)" d="M3,0A3,3 0 1,1 0,-3A3,3 0 0,1 3,0Z" style="opacity: 1; stroke-width: 0px; fill: rgb(183, 162, 148); fill-opacity: 1;"/><path class="point" transform="translate(198.59,20.59)" d="M3,0A3,3 0 1,1 0,-3A3,3 0 0,1 3,0Z" style="opacity: 1; stroke-width: 0px; fill: rgb(183, 162, 148); fill-opacity: 1;"/><path class="point" transform="translate(198.96,20.59)" d="M3,0A3,3 0 1,1 0,-3A3,3 0 0,1 3,0Z" style="opacity: 1; stroke-width: 0px; fill: rgb(183, 162, 148); fill-opacity: 1;"/><path class="point" transform="translate(201.09,20.59)" d="M3,0A3,3 0 1,1 0,-3A3,3 0 0,1 3,0Z" style="opacity: 1; stroke-width: 0px; fill: rgb(183, 162, 148); fill-opacity: 1;"/><path class="point" transform="translate(204.94,20.59)" d="M3,0A3,3 0 1,1 0,-3A3,3 0 0,1 3,0Z" style="opacity: 1; stroke-width: 0px; fill: rgb(183, 162, 148); fill-opacity: 1;"/><path class="point" transform="translate(206.24,20.59)" d="M3,0A3,3 0 1,1 0,-3A3,3 0 0,1 3,0Z" style="opacity: 1; stroke-width: 0px; fill: rgb(183, 162, 148); fill-opacity: 1;"/><path class="point" transform="translate(208.17,20.59)" d="M3,0A3,3 0 1,1 0,-3A3,3 0 0,1 3,0Z" style="opacity: 1; stroke-width: 0px; fill: rgb(183, 162, 148); fill-opacity: 1;"/><path class="point" transform="translate(208.46,20.59)" d="M3,0A3,3 0 1,1 0,-3A3,3 0 0,1 3,0Z" style="opacity: 1; stroke-width: 0px; fill: rgb(183, 162, 148); fill-opacity: 1;"/><path class="point" transform="translate(209.16,20.59)" d="M3,0A3,3 0 1,1 0,-3A3,3 0 0,1 3,0Z" style="opacity: 1; stroke-width: 0px; fill: rgb(183, 162, 148); fill-opacity: 1;"/><path class="point" transform="translate(209.69,20.59)" d="M3,0A3,3 0 1,1 0,-3A3,3 0 0,1 3,0Z" style="opacity: 1; stroke-width: 0px; fill: rgb(183, 162, 148); fill-opacity: 1;"/><path class="point" transform="translate(211.58,20.59)" d="M3,0A3,3 0 1,1 0,-3A3,3 0 0,1 3,0Z" style="opacity: 1; stroke-width: 0px; fill: rgb(183, 162, 148); fill-opacity: 1;"/><path class="point" transform="translate(212.87,20.59)" d="M3,0A3,3 0 1,1 0,-3A3,3 0 0,1 3,0Z" style="opacity: 1; stroke-width: 0px; fill: rgb(183, 162, 148); fill-opacity: 1;"/><path class="point" transform="translate(214.82,20.59)" d="M3,0A3,3 0 1,1 0,-3A3,3 0 0,1 3,0Z" style="opacity: 1; stroke-width: 0px; fill: rgb(183, 162, 148); fill-opacity: 1;"/><path class="point" transform="translate(216.25,20.59)" d="M3,0A3,3 0 1,1 0,-3A3,3 0 0,1 3,0Z" style="opacity: 1; stroke-width: 0px; fill: rgb(183, 162, 148); fill-opacity: 1;"/><path class="point" transform="translate(217.33,20.59)" d="M3,0A3,3 0 1,1 0,-3A3,3 0 0,1 3,0Z" style="opacity: 1; stroke-width: 0px; fill: rgb(183, 162, 148); fill-opacity: 1;"/><path class="point" transform="translate(219.94,20.59)" d="M3,0A3,3 0 1,1 0,-3A3,3 0 0,1 3,0Z" style="opacity: 1; stroke-width: 0px; fill: rgb(183, 162, 148); fill-opacity: 1;"/><path class="point" transform="translate(220.14,20.59)" d="M3,0A3,3 0 1,1 0,-3A3,3 0 0,1 3,0Z" style="opacity: 1; stroke-width: 0px; fill: rgb(183, 162, 148); fill-opacity: 1;"/><path class="point" transform="translate(221.08,20.59)" d="M3,0A3,3 0 1,1 0,-3A3,3 0 0,1 3,0Z" style="opacity: 1; stroke-width: 0px; fill: rgb(183, 162, 148); fill-opacity: 1;"/><path class="point" transform="translate(221.83,20.59)" d="M3,0A3,3 0 1,1 0,-3A3,3 0 0,1 3,0Z" style="opacity: 1; stroke-width: 0px; fill: rgb(183, 162, 148); fill-opacity: 1;"/><path class="point" transform="translate(223.04,20.59)" d="M3,0A3,3 0 1,1 0,-3A3,3 0 0,1 3,0Z" style="opacity: 1; stroke-width: 0px; fill: rgb(183, 162, 148); fill-opacity: 1;"/><path class="point" transform="translate(223.62,20.59)" d="M3,0A3,3 0 1,1 0,-3A3,3 0 0,1 3,0Z" style="opacity: 1; stroke-width: 0px; fill: rgb(183, 162, 148); fill-opacity: 1;"/><path class="point" transform="translate(227.76,20.59)" d="M3,0A3,3 0 1,1 0,-3A3,3 0 0,1 3,0Z" style="opacity: 1; stroke-width: 0px; fill: rgb(183, 162, 148); fill-opacity: 1;"/><path class="point" transform="translate(228.67,20.59)" d="M3,0A3,3 0 1,1 0,-3A3,3 0 0,1 3,0Z" style="opacity: 1; stroke-width: 0px; fill: rgb(183, 162, 148); fill-opacity: 1;"/><path class="point" transform="translate(230.25,20.59)" d="M3,0A3,3 0 1,1 0,-3A3,3 0 0,1 3,0Z" style="opacity: 1; stroke-width: 0px; fill: rgb(183, 162, 148); fill-opacity: 1;"/><path class="point" transform="translate(230.44,20.59)" d="M3,0A3,3 0 1,1 0,-3A3,3 0 0,1 3,0Z" style="opacity: 1; stroke-width: 0px; fill: rgb(183, 162, 148); fill-opacity: 1;"/><path class="point" transform="translate(230.67,20.59)" d="M3,0A3,3 0 1,1 0,-3A3,3 0 0,1 3,0Z" style="opacity: 1; stroke-width: 0px; fill: rgb(183, 162, 148); fill-opacity: 1;"/><path class="point" transform="translate(233.37,20.59)" d="M3,0A3,3 0 1,1 0,-3A3,3 0 0,1 3,0Z" style="opacity: 1; stroke-width: 0px; fill: rgb(183, 162, 148); fill-opacity: 1;"/><path class="point" transform="translate(235.05,20.59)" d="M3,0A3,3 0 1,1 0,-3A3,3 0 0,1 3,0Z" style="opacity: 1; stroke-width: 0px; fill: rgb(183, 162, 148); fill-opacity: 1;"/><path class="point" transform="translate(237.74,20.59)" d="M3,0A3,3 0 1,1 0,-3A3,3 0 0,1 3,0Z" style="opacity: 1; stroke-width: 0px; fill: rgb(183, 162, 148); fill-opacity: 1;"/><path class="point" transform="translate(238.15,20.59)" d="M3,0A3,3 0 1,1 0,-3A3,3 0 0,1 3,0Z" style="opacity: 1; stroke-width: 0px; fill: rgb(183, 162, 148); fill-opacity: 1;"/><path class="point" transform="translate(239.15,20.59)" d="M3,0A3,3 0 1,1 0,-3A3,3 0 0,1 3,0Z" style="opacity: 1; stroke-width: 0px; fill: rgb(183, 162, 148); fill-opacity: 1;"/><path class="point" transform="translate(239.21,20.59)" d="M3,0A3,3 0 1,1 0,-3A3,3 0 0,1 3,0Z" style="opacity: 1; stroke-width: 0px; fill: rgb(183, 162, 148); fill-opacity: 1;"/><path class="point" transform="translate(242.67,20.59)" d="M3,0A3,3 0 1,1 0,-3A3,3 0 0,1 3,0Z" style="opacity: 1; stroke-width: 0px; fill: rgb(183, 162, 148); fill-opacity: 1;"/><path class="point" transform="translate(244.71,20.59)" d="M3,0A3,3 0 1,1 0,-3A3,3 0 0,1 3,0Z" style="opacity: 1; stroke-width: 0px; fill: rgb(183, 162, 148); fill-opacity: 1;"/><path class="point" transform="translate(251.52,20.59)" d="M3,0A3,3 0 1,1 0,-3A3,3 0 0,1 3,0Z" style="opacity: 1; stroke-width: 0px; fill: rgb(183, 162, 148); fill-opacity: 1;"/><path class="point" transform="translate(252.32,20.59)" d="M3,0A3,3 0 1,1 0,-3A3,3 0 0,1 3,0Z" style="opacity: 1; stroke-width: 0px; fill: rgb(183, 162, 148); fill-opacity: 1;"/><path class="point" transform="translate(253.04,20.59)" d="M3,0A3,3 0 1,1 0,-3A3,3 0 0,1 3,0Z" style="opacity: 1; stroke-width: 0px; fill: rgb(183, 162, 148); fill-opacity: 1;"/><path class="point" transform="translate(253.23,20.59)" d="M3,0A3,3 0 1,1 0,-3A3,3 0 0,1 3,0Z" style="opacity: 1; stroke-width: 0px; fill: rgb(183, 162, 148); fill-opacity: 1;"/><path class="point" transform="translate(263.59,20.59)" d="M3,0A3,3 0 1,1 0,-3A3,3 0 0,1 3,0Z" style="opacity: 1; stroke-width: 0px; fill: rgb(183, 162, 148); fill-opacity: 1;"/><path class="point" transform="translate(267.38,20.59)" d="M3,0A3,3 0 1,1 0,-3A3,3 0 0,1 3,0Z" style="opacity: 1; stroke-width: 0px; fill: rgb(183, 162, 148); fill-opacity: 1;"/><path class="point" transform="translate(277.96,20.59)" d="M3,0A3,3 0 1,1 0,-3A3,3 0 0,1 3,0Z" style="opacity: 1; stroke-width: 0px; fill: rgb(183, 162, 148); fill-opacity: 1;"/><path class="point" transform="translate(291.05,20.59)" d="M3,0A3,3 0 1,1 0,-3A3,3 0 0,1 3,0Z" style="opacity: 1; stroke-width: 0px; fill: rgb(183, 162, 148); fill-opacity: 1;"/><path class="point" transform="translate(302.07,20.59)" d="M3,0A3,3 0 1,1 0,-3A3,3 0 0,1 3,0Z" style="opacity: 1; stroke-width: 0px; fill: rgb(183, 162, 148); fill-opacity: 1;"/><path class="point" transform="translate(304.63,20.59)" d="M3,0A3,3 0 1,1 0,-3A3,3 0 0,1 3,0Z" style="opacity: 1; stroke-width: 0px; fill: rgb(183, 162, 148); fill-opacity: 1;"/></g></g></g></g><g class="overplot"/><path class="xlines-above crisp" style="fill: none;" d="M0,0"/><path class="ylines-above crisp" style="fill: none;" d="M0,0"/><g class="overlines-above"/><g class="xaxislayer-above"/><g class="yaxislayer-above"/><g class="overaxes-above"/></g></g><g class="polarlayer"/><g class="smithlayer"/><g class="ternarylayer"/><g class="geolayer"/><g class="funnelarealayer"/><g class="pielayer"/><g class="iciclelayer"/><g class="treemaplayer"/><g class="sunburstlayer"/><g class="glimages"/><defs id="topdefs-85f23c"><g class="clips"/><clipPath id="legend85f23c"><rect width="214" height="29" x="0" y="0"/></clipPath></defs><g class="layer-above"><g class="imagelayer"/><g class="shapelayer"/></g><g class="infolayer"><g class="legend" pointer-events="all" transform="translate(406,64.6)"><rect class="bg" shape-rendering="crispEdges" style="stroke: rgb(68, 68, 68); stroke-opacity: 1; fill: rgb(255, 255, 255); fill-opacity: 1; stroke-width: 0px;" width="214" height="29" x="0" y="0"/><g class="scrollbox" transform="" clip-path="url(#legend85f23c)"><g class="groups" transform=""><g class="traces" style="opacity: 1;" transform="translate(0,14.5)"><text class="legendtext" text-anchor="start" x="40" y="4.680000000000001" style="font-family: 'Open Sans', verdana, arial, sans-serif; font-size: 12px; fill: rgb(48, 48, 48); fill-opacity: 1; white-space: pre;">Smoker</text><g class="layers" style="opacity: 1;"><g class="legendfill"/><g class="legendlines"/><g class="legendsymbols"><g class="legendpoints"><path class="legendundefined" d="M6,6H-6V-6H6Z" transform="translate(20,0)" style="stroke-width: 0px; fill: rgb(177, 75, 81); fill-opacity: 1;"/></g></g></g><rect class="legendtoggle" x="0" y="-9.5" width="89.796875" height="19" style="fill: rgb(0, 0, 0); fill-opacity: 0;"/></g></g><g class="groups" transform="translate(92.296875,0)"><g class="traces" style="opacity: 1;" transform="translate(0,14.5)"><text class="legendtext" text-anchor="start" x="40" y="4.680000000000001" style="font-family: 'Open Sans', verdana, arial, sans-serif; font-size: 12px; fill: rgb(48, 48, 48); fill-opacity: 1; white-space: pre;">Non-Smoker</text><g class="layers" style="opacity: 1;"><g class="legendfill"/><g class="legendlines"/><g class="legendsymbols"><g class="legendpoints"><path class="legendundefined" d="M6,6H-6V-6H6Z" transform="translate(20,0)" style="stroke-width: 0px; fill: rgb(183, 162, 148); fill-opacity: 1;"/></g></g></g><rect class="legendtoggle" x="0" y="-9.5" width="118.984375" height="19" style="fill: rgb(0, 0, 0); fill-opacity: 0;"/></g></g></g><rect class="scrollbar" rx="20" ry="3" width="0" height="0" style="fill: rgb(128, 139, 164); fill-opacity: 1;" x="0" y="0"/></g><g class="g-gtitle"><text class="gtitle" x="35" y="50" text-anchor="start" dy="0em" style="font-family: 'Open Sans', verdana, arial, sans-serif; font-size: 17px; fill: rgb(48, 48, 48); opacity: 1; font-weight: normal; white-space: pre;">Distribution of Insurance Costs by Smoking Status</text></g><g class="g-xtitle"><text class="xtitle" x="350" y="460.471875" text-anchor="middle" style="font-family: 'Open Sans', verdana, arial, sans-serif; font-size: 14px; fill: rgb(48, 48, 48); opacity: 1; font-weight: normal; white-space: pre;">Claim Amount, $</text></g><g class="g-x2title"/><g class="g-ytitle"><text class="ytitle" transform="rotate(-90,31.262500000000003,302.784)" x="31.262500000000003" y="302.784" text-anchor="middle" style="font-family: 'Open Sans', verdana, arial, sans-serif; font-size: 14px; fill: rgb(48, 48, 48); opacity: 1; font-weight: normal; white-space: pre;">Probability Density</text></g><g class="g-y2title"/></g></svg>