<svg class="main-svg" xmlns="http://www.w3.org/2000/svg" xmlns:xlink="http://www.w3.org/1999/xlink" width="900" height="500" style="" viewBox="0 0 900 500"><rect x="0" y="0" width="900" height="500" style="fill: rgb(244, 242, 240); fill-opacity: 1;"/><defs id="defs-1aab17"><g class="clips"><clipPath id="clip1aab17xyplot" class="plotclip"><rect width="727" height="263.736"/></clipPath><clipPath id="clip1aab17x2y2plot" class="plotclip"><rect width="727" height="92.66399999999999"/></clipPath><clipPath class="axesclip" id="clip1aab17x"><rect x="80" y="0" width="727" height="500"/></clipPath><clipPath class="axesclip" id="clip1aab17y"><rect x="0" y="156.264" width="900" height="263.736"/></clipPath><clipPath class="axesclip" id="clip1aab17xy"><rect x="80" y="156.264" width="727" height="263.736"/></clipPath><clipPath class="axesclip" id="clip1aab17y2"><rect x="0" y="60" width="900" height="92.66399999999999"/></clipPath><clipPath class="axesclip" id="clip1aab17xy2"><rect x="80" y="60" width="727" height="92.66399999999999"/></clipPath><clipPath class="axesclip" id="clip1aab17x2"><rect x="80" y="0" width="727" height="500"/></clipPath><clipPath class="axesclip" id="clip1aab17x2y"><rect x="80" y="156.264" width="727" height="263.736"/></clipPath><clipPath class="axesclip" id="clip1aab17x2y2"><rect x="80" y="60" width="727" height="92.66399999999999"/></clipPath></g><g class="gradients"/><g class="patterns"/></defs><g class="bglayer"/><g class="layer-below"><g class="imagelayer"/><g class="shapelayer"/></g><g class="cartesianlayer"><g class="subplot xy"><g class="layer-subplot"><g class="shapelayer"/><g class="imagelayer"/></g><g class="gridlayer"><g class="x"/><g class="y"><path class="ygrid crisp" transform="translate(0,350.784)" d="M80,0h727" style="stroke: rgb(255, 255, 255); stroke-opacity: 1; stroke-width: 1px;"/><path class="ygrid crisp" transform="translate(0,281.574)" d="M80,0h727" style="stroke: rgb(255, 255, 255); stroke-opacity: 1; stroke-width: 1px;"/><path class="ygrid crisp" transform="translate(0,212.364)" d="M80,0h727" style="stroke: rgb(255, 255, 255); stroke-opacity: 1; stroke-width: 1px;"/></g></g><g class="zerolinelayer"><path class="yzl zl crisp" transform="translate(0,420.004)" d="M80,0h727" style="stroke: rgb(255, 255, 255); stroke-opacity: 1; stroke-width: 2px;"/></g><path class="xlines-below"/><path class="ylines-below"/><g class="overlines-below"/><g class="xaxislayer-below"/><g class="yaxislayer-below"/><g class="overaxes-below"/><g class="plot" transform="translate(80,156.264)" clip-path="url(#clip1aab17xyplot)"><g class="barlayer mlayer"><g class="trace bars" shape-rendering="crispEdges" style="opacity: 1;"><g class="points"><g class="point"><path d="M36.02,263.74V251.28H70.48V263.74Z" style="vector-effect: non-scaling-stroke; opacity: 0.8; stroke-width: 0px; fill: rgb(192, 43, 52); fill-opacity: 1;"/></g><g class="point"><path d="M70.48,263.74V197.98H104.93V263.74Z" style="vector-effect: non-scaling-stroke; opacity: 0.8; stroke-width: 0px; fill: rgb(192, 43, 52); fill-opacity: 1;"/></g><g class="point"><path d="M104.93,263.74V247.13H139.39V263.74Z" style="vector-effect: non-scaling-stroke; opacity: 0.8; stroke-width: 0px; fill: rgb(192, 43, 52); fill-opacity: 1;"/></g><g class="point"><path d="M139.39,263.74V245.74H173.84V263.74Z" style="vector-effect: non-scaling-stroke; opacity: 0.8; stroke-width: 0px; fill: rgb(192, 43, 52); fill-opacity: 1;"/></g><g class="point"><path d="M173.84,263.74V252.66H208.3V263.74Z" style="vector-effect: non-scaling-stroke; opacity: 0.8; stroke-width: 0px; fill: rgb(192, 43, 52); fill-opacity: 1;"/></g><g class="point"><path d="M208.3,263.74V256.12H242.75V263.74Z" style="vector-effect: non-scaling-stroke; opacity: 0.8; stroke-width: 0px; fill: rgb(192, 43, 52); fill-opacity: 1;"/></g><g class="point"><path d="M242.75,263.74V258.89H277.21V263.74Z" style="vector-effect: non-scaling-stroke; opacity: 0.8; stroke-width: 0px; fill: rgb(192, 43, 52); fill-opacity: 1;"/></g><g class="point"><path d="M277.21,263.74V259.58H311.66V263.74Z" style="vector-effect: non-scaling-stroke; opacity: 0.8; stroke-width: 0px; fill: rgb(192, 43, 52); fill-opacity: 1;"/></g><g class="point"><path d="M311.66,263.74V257.51H346.12V263.74Z" style="vector-effect: non-scaling-stroke; opacity: 0.8; stroke-width: 0px; fill: rgb(192, 43, 52); fill-opacity: 1;"/></g><g class="point"><path d="M346.12,263.74V254.74H380.57V263.74Z" style="vector-effect: non-scaling-stroke; opacity: 0.8; stroke-width: 0px; fill: rgb(192, 43, 52); fill-opacity: 1;"/></g><g class="point"><path d="M380.57,263.74V263.04H415.03V263.74Z" style="vector-effect: non-scaling-stroke; opacity: 0.8; stroke-width: 0px; fill: rgb(192, 43, 52); fill-opacity: 1;"/></g><g class="point"><path d="M415.03,263.74V262.35H449.48V263.74Z" style="vector-effect: non-scaling-stroke; opacity: 0.8; stroke-width: 0px; fill: rgb(192, 43, 52); fill-opacity: 1;"/></g><g class="point"><path d="M449.48,263.74V260.97H483.94V263.74Z" style="vector-effect: non-scaling-stroke; opacity: 0.8; stroke-width: 0px; fill: rgb(192, 43, 52); fill-opacity: 1;"/></g><g class="point"><path d="M0,0Z" style="vector-effect: non-scaling-stroke; opacity: 0.8; stroke-width: 0px; fill: rgb(192, 43, 52); fill-opacity: 1;"/></g><g class="point"><path d="M0,0Z" style="vector-effect: non-scaling-stroke; opacity: 0.8; stroke-width: 0px; fill: rgb(192, 43, 52); fill-opacity: 1;"/></g><g class="point"><path d="M0,0Z" style="vector-effect: non-scaling-stroke; opacity: 0.8; stroke-width: 0px; fill: rgb(192, 43, 52); fill-opacity: 1;"/></g><g class="point"><path d="M0,0Z" style="vector-effect: non-scaling-stroke; opacity: 0.8; stroke-width: 0px; fill: rgb(192, 43, 52); fill-opacity: 1;"/></g><g class="point"><path d="M621.76,263.74V263.04H656.21V263.74Z" style="vector-effect: non-scaling-stroke; opacity: 0.8; stroke-width: 0px; fill: rgb(192, 43, 52); fill-opacity: 1;"/></g><g class="point"><path d="M656.21,263.74V260.97H690.67V263.74Z" style="vector-effect: non-scaling-stroke; opacity: 0.8; stroke-width: 0px; fill: rgb(192, 43, 52); fill-opacity: 1;"/></g></g></g><g class="trace bars" shape-rendering="crispEdges" style="opacity: 1;"><g class="points"><g class="point"><path d="M36.02,251.28V240.9H70.48V251.28Z" style="vector-effect: non-scaling-stroke; opacity: 0.8; stroke-width: 0px; fill: rgb(205, 187, 167); fill-opacity: 1;"/></g><g class="point"><path d="M70.48,197.98V13.19H104.93V197.98Z" style="vector-effect: non-scaling-stroke; opacity: 0.8; stroke-width: 0px; fill: rgb(205, 187, 167); fill-opacity: 1;"/></g><g class="point"><path d="M104.93,247.13V161.99H139.39V247.13Z" style="vector-effect: non-scaling-stroke; opacity: 0.8; stroke-width: 0px; fill: rgb(205, 187, 167); fill-opacity: 1;"/></g><g class="point"><path d="M139.39,245.74V120.47H173.84V245.74Z" style="vector-effect: non-scaling-stroke; opacity: 0.8; stroke-width: 0px; fill: rgb(205, 187, 167); fill-opacity: 1;"/></g><g class="point"><path d="M173.84,252.66V149.54H208.3V252.66Z" style="vector-effect: non-scaling-stroke; opacity: 0.8; stroke-width: 0px; fill: rgb(205, 187, 167); fill-opacity: 1;"/></g><g class="point"><path d="M208.3,256.12V179.99H242.75V256.12Z" style="vector-effect: non-scaling-stroke; opacity: 0.8; stroke-width: 0px; fill: rgb(205, 187, 167); fill-opacity: 1;"/></g><g class="point"><path d="M242.75,258.89V226.36H277.21V258.89Z" style="vector-effect: non-scaling-stroke; opacity: 0.8; stroke-width: 0px; fill: rgb(205, 187, 167); fill-opacity: 1;"/></g><g class="point"><path d="M277.21,259.58V230.51H311.66V259.58Z" style="vector-effect: non-scaling-stroke; opacity: 0.8; stroke-width: 0px; fill: rgb(205, 187, 167); fill-opacity: 1;"/></g><g class="point"><path d="M311.66,257.51V227.75H346.12V257.51Z" style="vector-effect: non-scaling-stroke; opacity: 0.8; stroke-width: 0px; fill: rgb(205, 187, 167); fill-opacity: 1;"/></g><g class="point"><path d="M346.12,254.74V218.06H380.57V254.74Z" style="vector-effect: non-scaling-stroke; opacity: 0.8; stroke-width: 0px; fill: rgb(205, 187, 167); fill-opacity: 1;"/></g><g class="point"><path d="M380.57,263.04V249.89H415.03V263.04Z" style="vector-effect: non-scaling-stroke; opacity: 0.8; stroke-width: 0px; fill: rgb(205, 187, 167); fill-opacity: 1;"/></g><g class="point"><path d="M415.03,262.35V256.81H449.48V262.35Z" style="vector-effect: non-scaling-stroke; opacity: 0.8; stroke-width: 0px; fill: rgb(205, 187, 167); fill-opacity: 1;"/></g><g class="point"><path d="M449.48,260.97V233.97H483.94V260.97Z" style="vector-effect: non-scaling-stroke; opacity: 0.8; stroke-width: 0px; fill: rgb(205, 187, 167); fill-opacity: 1;"/></g><g class="point"><path d="M483.94,263.74V257.51H518.39V263.74Z" style="vector-effect: non-scaling-stroke; opacity: 0.8; stroke-width: 0px; fill: rgb(205, 187, 167); fill-opacity: 1;"/></g><g class="point"><path d="M518.39,263.74V258.89H552.85V263.74Z" style="vector-effect: non-scaling-stroke; opacity: 0.8; stroke-width: 0px; fill: rgb(205, 187, 167); fill-opacity: 1;"/></g><g class="point"><path d="M552.85,263.74V243.66H587.3V263.74Z" style="vector-effect: non-scaling-stroke; opacity: 0.8; stroke-width: 0px; fill: rgb(205, 187, 167); fill-opacity: 1;"/></g><g class="point"><path d="M587.3,263.74V244.36H621.76V263.74Z" style="vector-effect: non-scaling-stroke; opacity: 0.8; stroke-width: 0px; fill: rgb(205, 187, 167); fill-opacity: 1;"/></g><g class="point"><path d="M621.76,263.04V250.59H656.21V263.04Z" style="vector-effect: non-scaling-stroke; opacity: 0.8; stroke-width: 0px; fill: rgb(205, 187, 167); fill-opacity: 1;"/></g><g class="point"><path d="M656.21,260.97V229.13H690.67V260.97Z" style="vector-effect: non-scaling-stroke; opacity: 0.8; stroke-width: 0px; fill: rgb(205, 187, 167); fill-opacity: 1;"/></g></g></g></g></g><g class="overplot"/><path class="xlines-above crisp" d="M0,0" style="fill: none;"/><path class="ylines-above crisp" d="M0,0" style="fill: none;"/><g class="overlines-above"/><g class="xaxislayer-above"><g class="xtick"><text text-anchor="middle" x="0" y="433" transform="translate(81.58,0)" style="font-family: 'Open Sans', verdana, arial, sans-serif; font-size: 12px; fill: rgb(40, 34, 29); fill-opacity: 1; white-space: pre; opacity: 1;">0</text></g><g class="xtick"><text text-anchor="middle" x="0" y="433" style="font-family: 'Open Sans', verdana, arial, sans-serif; font-size: 12px; fill: rgb(40, 34, 29); fill-opacity: 1; white-space: pre; opacity: 1;" transform="translate(253.86,0)">5k</text></g><g class="xtick"><text text-anchor="middle" x="0" y="433" style="font-family: 'Open Sans', verdana, arial, sans-serif; font-size: 12px; fill: rgb(40, 34, 29); fill-opacity: 1; white-space: pre; opacity: 1;" transform="translate(426.13,0)">10k</text></g><g class="xtick"><text text-anchor="middle" x="0" y="433" style="font-family: 'Open Sans', verdana, arial, sans-serif; font-size: 12px; fill: rgb(40, 34, 29); fill-opacity: 1; white-space: pre; opacity: 1;" transform="translate(598.41,0)">15k</text></g><g class="xtick"><text text-anchor="middle" x="0" y="433" style="font-family: 'Open Sans', verdana, arial, sans-serif; font-size: 12px; fill: rgb(40, 34, 29); fill-opacity: 1; white-space: pre; opacity: 1;" transform="translate(770.68,0)">20k</text></g></g><g class="yaxislayer-above"><g class="ytick"><text text-anchor="end" x="79" y="4.199999999999999" transform="translate(0,420.004)" style="font-family: 'Open Sans', verdana, arial, sans-serif; font-size: 12px; fill: rgb(40, 34, 29); fill-opacity: 1; white-space: pre; opacity: 1;">0</text></g><g class="ytick"><text text-anchor="end" x="79" y="4.199999999999999" style="font-family: 'Open Sans', verdana, arial, sans-serif; font-size: 12px; fill: rgb(40, 34, 29); fill-opacity: 1; white-space: pre; opacity: 1;" transform="translate(0,350.784)">0.1</text></g><g class="ytick"><text text-anchor="end" x="79" y="4.199999999999999" style="font-family: 'Open Sans', verdana, arial, sans-serif; font-size: 12px; fill: rgb(40, 34, 29); fill-opacity: 1; white-space: pre; opacity: 1;" transform="translate(0,281.574)">0.2</text></g><g class="ytick"><text text-anchor="end" x="79" y="4.199999999999999" style="font-family: 'Open Sans', verdana, arial, sans-serif; font-size: 12px; fill: rgb(40, 34, 29); fill-opacity: 1; white-space: pre; opacity: 1;" transform="translate(0,212.364)">0.3</text></g></g><g class="overaxes-above"/></g><g class="subplot x2y2"><g class="layer-subplot"><g class="shapelayer"/><g class="imagelayer"/></g><g class="gridlayer"><g class="x2"><path class="x2grid crisp" transform="translate(253.86,0)" d="M0,60v92.66399999999999" style="stroke: rgb(255, 255, 255); stroke-opacity: 1; stroke-width: 1px;"/><path class="x2grid crisp" transform="translate(426.13,0)" d="M0,60v92.66399999999999" style="stroke: rgb(255, 255, 255); stroke-opacity: 1; stroke-width: 1px;"/><path class="x2grid crisp" transform="translate(598.41,0)" d="M0,60v92.66399999999999" style="stroke: rgb(255, 255, 255); stroke-opacity: 1; stroke-width: 1px;"/><path class="x2grid crisp" transform="translate(770.68,0)" d="M0,60v92.66399999999999" style="stroke: rgb(255, 255, 255); stroke-opacity: 1; stroke-width: 1px;"/></g><g class="y2"/></g><g class="zerolinelayer"><path class="x2zl zl crisp" transform="translate(81.58,0)" d="M0,60v92.66399999999999" style="stroke: rgb(255, 255, 255); stroke-opacity: 1; stroke-width: 2px;"/></g><path class="xlines-below"/><path class="ylines-below"/><g class="overlines-below"/><g class="xaxislayer-below"/><g class="yaxislayer-below"/><g class="overaxes-below"/><g class="plot" transform="translate(80,60)" clip-path="url(#clip1aab17x2y2plot)"><g class="boxlayer mlayer"><g class="trace boxes" style="opacity: 1;"><path class="box" d="M111.91,75.17V63.82M83.29,80.85V58.15H99.39L111.91,63.82L124.43,58.15H206.08V80.85H124.43L111.91,75.17L99.39,80.85ZM83.29,69.5H36.35M206.08,69.5H375.56M36.35,75.17V63.82M375.56,75.17V63.82" style="vector-effect: non-scaling-stroke; stroke-width: 2px; stroke: rgb(192, 43, 52); stroke-opacity: 1; fill: rgb(192, 43, 52); fill-opacity: 0.5;"/><g class="points"><path class="point" transform="translate(409.84,69.5)" d="M3,0A3,3 0 1,1 0,-3A3,3 0 0,1 3,0Z" style="opacity: 1; stroke-width: 0px; fill: rgb(192, 43, 52); fill-opacity: 1;"/><path class="point" transform="translate(420.87,69.5)" d="M3,0A3,3 0 1,1 0,-3A3,3 0 0,1 3,0Z" style="opacity: 1; stroke-width: 0px; fill: rgb(192, 43, 52); fill-opacity: 1;"/><path class="point" transform="translate(447.29,69.5)" d="M3,0A3,3 0 1,1 0,-3A3,3 0 0,1 3,0Z" style="opacity: 1; stroke-width: 0px; fill: rgb(192, 43, 52); fill-opacity: 1;"/><path class="point" transform="translate(456.18,69.5)" d="M3,0A3,3 0 1,1 0,-3A3,3 0 0,1 3,0Z" style="opacity: 1; stroke-width: 0px; fill: rgb(192, 43, 52); fill-opacity: 1;"/><path class="point" transform="translate(470.52,69.5)" d="M3,0A3,3 0 1,1 0,-3A3,3 0 0,1 3,0Z" style="opacity: 1; stroke-width: 0px; fill: rgb(192, 43, 52); fill-opacity: 1;"/><path class="point" transform="translate(473.45,69.5)" d="M3,0A3,3 0 1,1 0,-3A3,3 0 0,1 3,0Z" style="opacity: 1; stroke-width: 0px; fill: rgb(192, 43, 52); fill-opacity: 1;"/><path class="point" transform="translate(475.62,69.5)" d="M3,0A3,3 0 1,1 0,-3A3,3 0 0,1 3,0Z" style="opacity: 1; stroke-width: 0px; fill: rgb(192, 43, 52); fill-opacity: 1;"/><path class="point" transform="translate(650.17,69.5)" d="M3,0A3,3 0 1,1 0,-3A3,3 0 0,1 3,0Z" style="opacity: 1; stroke-width: 0px; fill: rgb(192, 43, 52); fill-opacity: 1;"/><path class="point" transform="translate(664.71,69.5)" d="M3,0A3,3 0 1,1 0,-3A3,3 0 0,1 3,0Z" style="opacity: 1; stroke-width: 0px; fill: rgb(192, 43, 52); fill-opacity: 1;"/><path class="point" transform="translate(675.01,69.5)" d="M3,0A3,3 0 1,1 0,-3A3,3 0 0,1 3,0Z" style="opacity: 1; stroke-width: 0px; fill: rgb(192, 43, 52); fill-opacity: 1;"/><path class="point" transform="translate(685.34,69.5)" d="M3,0A3,3 0 1,1 0,-3A3,3 0 0,1 3,0Z" style="opacity: 1; stroke-width: 0px; fill: rgb(192, 43, 52); fill-opacity: 1;"/><path class="point" transform="translate(685.83,69.5)" d="M3,0A3,3 0 1,1 0,-3A3,3 0 0,1 3,0Z" style="opacity: 1; stroke-width: 0px; fill: rgb(192, 43, 52); fill-opacity: 1;"/></g></g><g class="trace boxes" style="opacity: 1;"><path class="box" d="M180.89,28.84V17.49M112.21,34.52V11.81H172.22L180.89,17.49L189.55,11.81H305.99V34.52H189.55L180.89,28.84L172.22,34.52ZM112.21,23.17H37.8M305.99,23.17H593.56M37.8,28.84V17.49M593.56,28.84V17.49" style="vector-effect: non-scaling-stroke; stroke-width: 2px; stroke: rgb(205, 187, 167); stroke-opacity: 1; fill: rgb(205, 187, 167); fill-opacity: 0.5;"/><g class="points"><path class="point" transform="translate(598.62,23.17)" d="M3,0A3,3 0 1,1 0,-3A3,3 0 0,1 3,0Z" style="opacity: 1; stroke-width: 0px; fill: rgb(205, 187, 167); fill-opacity: 1;"/><path class="point" transform="translate(598.62,23.17)" d="M3,0A3,3 0 1,1 0,-3A3,3 0 0,1 3,0Z" style="opacity: 1; stroke-width: 0px; fill: rgb(205, 187, 167); fill-opacity: 1;"/><path class="point" transform="translate(601.07,23.17)" d="M3,0A3,3 0 1,1 0,-3A3,3 0 0,1 3,0Z" style="opacity: 1; stroke-width: 0px; fill: rgb(205, 187, 167); fill-opacity: 1;"/><path class="point" transform="translate(602,23.17)" d="M3,0A3,3 0 1,1 0,-3A3,3 0 0,1 3,0Z" style="opacity: 1; stroke-width: 0px; fill: rgb(205, 187, 167); fill-opacity: 1;"/><path class="point" transform="translate(602.62,23.17)" d="M3,0A3,3 0 1,1 0,-3A3,3 0 0,1 3,0Z" style="opacity: 1; stroke-width: 0px; fill: rgb(205, 187, 167); fill-opacity: 1;"/><path class="point" transform="translate(603.34,23.17)" d="M3,0A3,3 0 1,1 0,-3A3,3 0 0,1 3,0Z" style="opacity: 1; stroke-width: 0px; fill: rgb(205, 187, 167); fill-opacity: 1;"/><path class="point" transform="translate(606.86,23.17)" d="M3,0A3,3 0 1,1 0,-3A3,3 0 0,1 3,0Z" style="opacity: 1; stroke-width: 0px; fill: rgb(205, 187, 167); fill-opacity: 1;"/><path class="point" transform="translate(607.44,23.17)" d="M3,0A3,3 0 1,1 0,-3A3,3 0 0,1 3,0Z" style="opacity: 1; stroke-width: 0px; fill: rgb(205, 187, 167); fill-opacity: 1;"/><path class="point" transform="translate(608.1,23.17)" d="M3,0A3,3 0 1,1 0,-3A3,3 0 0,1 3,0Z" style="opacity: 1; stroke-width: 0px; fill: rgb(205, 187, 167); fill-opacity: 1;"/><path class="point" transform="translate(609.34,23.17)" d="M3,0A3,3 0 1,1 0,-3A3,3 0 0,1 3,0Z" style="opacity: 1; stroke-width: 0px; fill: rgb(205, 187, 167); fill-opacity: 1;"/><path class="point" transform="translate(609.72,23.17)" d="M3,0A3,3 0 1,1 0,-3A3,3 0 0,1 3,0Z" style="opacity: 1; stroke-width: 0px; fill: rgb(205, 187, 167); fill-opacity: 1;"/><path class="point" transform="translate(610.23,23.17)" d="M3,0A3,3 0 1,1 0,-3A3,3 0 0,1 3,0Z" style="opacity: 1; stroke-width: 0px; fill: rgb(205, 187, 167); fill-opacity: 1;"/><path class="point" transform="translate(614.16,23.17)" d="M3,0A3,3 0 1,1 0,-3A3,3 0 0,1 3,0Z" style="opacity: 1; stroke-width: 0px; fill: rgb(205, 187, 167); fill-opacity: 1;"/><path class="point" transform="translate(616.81,23.17)" d="M3,0A3,3 0 1,1 0,-3A3,3 0 0,1 3,0Z" style="opacity: 1; stroke-width: 0px; fill: rgb(205, 187, 167); fill-opacity: 1;"/><path class="point" transform="translate(616.99,23.17)" d="M3,0A3,3 0 1,1 0,-3A3,3 0 0,1 3,0Z" style="opacity: 1; stroke-width: 0px; fill: rgb(205, 187, 167); fill-opacity: 1;"/><path class="point" transform="translate(616.99,23.17)" d="M3,0A3,3 0 1,1 0,-3A3,3 0 0,1 3,0Z" style="opacity: 1; stroke-width: 0px; fill: rgb(205, 187, 167); fill-opacity: 1;"/><path class="point" transform="translate(617.47,23.17)" d="M3,0A3,3 0 1,1 0,-3A3,3 0 0,1 3,0Z" style="opacity: 1; stroke-width: 0px; fill: rgb(205, 187, 167); fill-opacity: 1;"/><path class="point" transform="translate(619.16,23.17)" d="M3,0A3,3 0 1,1 0,-3A3,3 0 0,1 3,0Z" style="opacity: 1; stroke-width: 0px; fill: rgb(205, 187, 167); fill-opacity: 1;"/><path class="point" transform="translate(623.19,23.17)" d="M3,0A3,3 0 1,1 0,-3A3,3 0 0,1 3,0Z" style="opacity: 1; stroke-width: 0px; fill: rgb(205, 187, 167); fill-opacity: 1;"/><path class="point" transform="translate(623.88,23.17)" d="M3,0A3,3 0 1,1 0,-3A3,3 0 0,1 3,0Z" style="opacity: 1; stroke-width: 0px; fill: rgb(205, 187, 167); fill-opacity: 1;"/><path class="point" transform="translate(627.7,23.17)" d="M3,0A3,3 0 1,1 0,-3A3,3 0 0,1 3,0Z" style="opacity: 1; stroke-width: 0px; fill: rgb(205, 187, 167); fill-opacity: 1;"/><path class="point" transform="translate(628.67,23.17)" d="M3,0A3,3 0 1,1 0,-3A3,3 0 0,1 3,0Z" style="opacity: 1; stroke-width: 0px; fill: rgb(205, 187, 167); fill-opacity: 1;"/><path class="point" transform="translate(629.11,23.17)" d="M3,0A3,3 0 1,1 0,-3A3,3 0 0,1 3,0Z" style="opacity: 1; stroke-width: 0px; fill: rgb(205, 187, 167); fill-opacity: 1;"/><path class="point" transform="translate(630.91,23.17)" d="M3,0A3,3 0 1,1 0,-3A3,3 0 0,1 3,0Z" style="opacity: 1; stroke-width: 0px; fill: rgb(205, 187, 167); fill-opacity: 1;"/><path class="point" transform="translate(632.11,23.17)" d="M3,0A3,3 0 1,1 0,-3A3,3 0 0,1 3,0Z" style="opacity: 1; stroke-width: 0px; fill: rgb(205, 187, 167); fill-opacity: 1;"/><path class="point" transform="translate(632.21,23.17)" d="M3,0A3,3 0 1,1 0,-3A3,3 0 0,1 3,0Z" style="opacity: 1; stroke-width: 0px; fill: rgb(205, 187, 167); fill-opacity: 1;"/><path class="point" transform="translate(636.59,23.17)" d="M3,0A3,3 0 1,1 0,-3A3,3 0 0,1 3,0Z" style="opacity: 1; stroke-width: 0px; fill: rgb(205, 187, 167); fill-opacity: 1;"/><path class="point" transform="translate(642.65,23.17)" d="M3,0A3,3 0 1,1 0,-3A3,3 0 0,1 3,0Z" style="opacity: 1; stroke-width: 0px; fill: rgb(205, 187, 167); fill-opacity: 1;"/><path class="point" transform="translate(644.69,23.17)" d="M3,0A3,3 0 1,1 0,-3A3,3 0 0,1 3,0Z" style="opacity: 1; stroke-width: 0px; fill: rgb(205, 187, 167); fill-opacity: 1;"/><path class="point" transform="translate(646.27,23.17)" d="M3,0A3,3 0 1,1 0,-3A3,3 0 0,1 3,0Z" style="opacity: 1; stroke-width: 0px; fill: rgb(205, 187, 167); fill-opacity: 1;"/><path class="point" transform="translate(646.65,23.17)" d="M3,0A3,3 0 1,1 0,-3A3,3 0 0,1 3,0Z" style="opacity: 1; stroke-width: 0px; fill: rgb(205, 187, 167); fill-opacity: 1;"/><path class="point" transform="translate(647.27,23.17)" d="M3,0A3,3 0 1,1 0,-3A3,3 0 0,1 3,0Z" style="opacity: 1; stroke-width: 0px; fill: rgb(205, 187, 167); fill-opacity: 1;"/><path class="point" transform="translate(648.96,23.17)" d="M3,0A3,3 0 1,1 0,-3A3,3 0 0,1 3,0Z" style="opacity: 1; stroke-width: 0px; fill: rgb(205, 187, 167); fill-opacity: 1;"/><path class="point" transform="translate(650.85,23.17)" d="M3,0A3,3 0 1,1 0,-3A3,3 0 0,1 3,0Z" style="opacity: 1; stroke-width: 0px; fill: rgb(205, 187, 167); fill-opacity: 1;"/><path class="point" transform="translate(652.09,23.17)" d="M3,0A3,3 0 1,1 0,-3A3,3 0 0,1 3,0Z" style="opacity: 1; stroke-width: 0px; fill: rgb(205, 187, 167); fill-opacity: 1;"/><path class="point" transform="translate(654.4,23.17)" d="M3,0A3,3 0 1,1 0,-3A3,3 0 0,1 3,0Z" style="opacity: 1; stroke-width: 0px; fill: rgb(205, 187, 167); fill-opacity: 1;"/><path class="point" transform="translate(657.37,23.17)" d="M3,0A3,3 0 1,1 0,-3A3,3 0 0,1 3,0Z" style="opacity: 1; stroke-width: 0px; fill: rgb(205, 187, 167); fill-opacity: 1;"/><path class="point" transform="translate(657.54,23.17)" d="M3,0A3,3 0 1,1 0,-3A3,3 0 0,1 3,0Z" style="opacity: 1; stroke-width: 0px; fill: rgb(205, 187, 167); fill-opacity: 1;"/><path class="point" transform="translate(657.78,23.17)" d="M3,0A3,3 0 1,1 0,-3A3,3 0 0,1 3,0Z" style="opacity: 1; stroke-width: 0px; fill: rgb(205, 187, 167); fill-opacity: 1;"/><path class="point" transform="translate(657.92,23.17)" d="M3,0A3,3 0 1,1 0,-3A3,3 0 0,1 3,0Z" style="opacity: 1; stroke-width: 0px; fill: rgb(205, 187, 167); fill-opacity: 1;"/><path class="point" transform="translate(658.57,23.17)" d="M3,0A3,3 0 1,1 0,-3A3,3 0 0,1 3,0Z" style="opacity: 1; stroke-width: 0px; fill: rgb(205, 187, 167); fill-opacity: 1;"/><path class="point" transform="translate(659.02,23.17)" d="M3,0A3,3 0 1,1 0,-3A3,3 0 0,1 3,0Z" style="opacity: 1; stroke-width: 0px; fill: rgb(205, 187, 167); fill-opacity: 1;"/><path class="point" transform="translate(659.47,23.17)" d="M3,0A3,3 0 1,1 0,-3A3,3 0 0,1 3,0Z" style="opacity: 1; stroke-width: 0px; fill: rgb(205, 187, 167); fill-opacity: 1;"/><path class="point" transform="translate(661.09,23.17)" d="M3,0A3,3 0 1,1 0,-3A3,3 0 0,1 3,0Z" style="opacity: 1; stroke-width: 0px; fill: rgb(205, 187, 167); fill-opacity: 1;"/><path class="point" transform="translate(661.19,23.17)" d="M3,0A3,3 0 1,1 0,-3A3,3 0 0,1 3,0Z" style="opacity: 1; stroke-width: 0px; fill: rgb(205, 187, 167); fill-opacity: 1;"/><path class="point" transform="translate(661.78,23.17)" d="M3,0A3,3 0 1,1 0,-3A3,3 0 0,1 3,0Z" style="opacity: 1; stroke-width: 0px; fill: rgb(205, 187, 167); fill-opacity: 1;"/><path class="point" transform="translate(662.67,23.17)" d="M3,0A3,3 0 1,1 0,-3A3,3 0 0,1 3,0Z" style="opacity: 1; stroke-width: 0px; fill: rgb(205, 187, 167); fill-opacity: 1;"/><path class="point" transform="translate(662.74,23.17)" d="M3,0A3,3 0 1,1 0,-3A3,3 0 0,1 3,0Z" style="opacity: 1; stroke-width: 0px; fill: rgb(205, 187, 167); fill-opacity: 1;"/><path class="point" transform="translate(662.78,23.17)" d="M3,0A3,3 0 1,1 0,-3A3,3 0 0,1 3,0Z" style="opacity: 1; stroke-width: 0px; fill: rgb(205, 187, 167); fill-opacity: 1;"/><path class="point" transform="translate(663.02,23.17)" d="M3,0A3,3 0 1,1 0,-3A3,3 0 0,1 3,0Z" style="opacity: 1; stroke-width: 0px; fill: rgb(205, 187, 167); fill-opacity: 1;"/><path class="point" transform="translate(663.19,23.17)" d="M3,0A3,3 0 1,1 0,-3A3,3 0 0,1 3,0Z" style="opacity: 1; stroke-width: 0px; fill: rgb(205, 187, 167); fill-opacity: 1;"/><path class="point" transform="translate(664.22,23.17)" d="M3,0A3,3 0 1,1 0,-3A3,3 0 0,1 3,0Z" style="opacity: 1; stroke-width: 0px; fill: rgb(205, 187, 167); fill-opacity: 1;"/><path class="point" transform="translate(664.4,23.17)" d="M3,0A3,3 0 1,1 0,-3A3,3 0 0,1 3,0Z" style="opacity: 1; stroke-width: 0px; fill: rgb(205, 187, 167); fill-opacity: 1;"/><path class="point" transform="translate(665.6,23.17)" d="M3,0A3,3 0 1,1 0,-3A3,3 0 0,1 3,0Z" style="opacity: 1; stroke-width: 0px; fill: rgb(205, 187, 167); fill-opacity: 1;"/><path class="point" transform="translate(667.53,23.17)" d="M3,0A3,3 0 1,1 0,-3A3,3 0 0,1 3,0Z" style="opacity: 1; stroke-width: 0px; fill: rgb(205, 187, 167); fill-opacity: 1;"/><path class="point" transform="translate(667.63,23.17)" d="M3,0A3,3 0 1,1 0,-3A3,3 0 0,1 3,0Z" style="opacity: 1; stroke-width: 0px; fill: rgb(205, 187, 167); fill-opacity: 1;"/><path class="point" transform="translate(669.74,23.17)" d="M3,0A3,3 0 1,1 0,-3A3,3 0 0,1 3,0Z" style="opacity: 1; stroke-width: 0px; fill: rgb(205, 187, 167); fill-opacity: 1;"/><path class="point" transform="translate(670.22,23.17)" d="M3,0A3,3 0 1,1 0,-3A3,3 0 0,1 3,0Z" style="opacity: 1; stroke-width: 0px; fill: rgb(205, 187, 167); fill-opacity: 1;"/><path class="point" transform="translate(670.67,23.17)" d="M3,0A3,3 0 1,1 0,-3A3,3 0 0,1 3,0Z" style="opacity: 1; stroke-width: 0px; fill: rgb(205, 187, 167); fill-opacity: 1;"/><path class="point" transform="translate(671.08,23.17)" d="M3,0A3,3 0 1,1 0,-3A3,3 0 0,1 3,0Z" style="opacity: 1; stroke-width: 0px; fill: rgb(205, 187, 167); fill-opacity: 1;"/><path class="point" transform="translate(671.25,23.17)" d="M3,0A3,3 0 1,1 0,-3A3,3 0 0,1 3,0Z" style="opacity: 1; stroke-width: 0px; fill: rgb(205, 187, 167); fill-opacity: 1;"/><path class="point" transform="translate(673.53,23.17)" d="M3,0A3,3 0 1,1 0,-3A3,3 0 0,1 3,0Z" style="opacity: 1; stroke-width: 0px; fill: rgb(205, 187, 167); fill-opacity: 1;"/><path class="point" transform="translate(673.9,23.17)" d="M3,0A3,3 0 1,1 0,-3A3,3 0 0,1 3,0Z" style="opacity: 1; stroke-width: 0px; fill: rgb(205, 187, 167); fill-opacity: 1;"/><path class="point" transform="translate(674.04,23.17)" d="M3,0A3,3 0 1,1 0,-3A3,3 0 0,1 3,0Z" style="opacity: 1; stroke-width: 0px; fill: rgb(205, 187, 167); fill-opacity: 1;"/><path class="point" transform="translate(674.73,23.17)" d="M3,0A3,3 0 1,1 0,-3A3,3 0 0,1 3,0Z" style="opacity: 1; stroke-width: 0px; fill: rgb(205, 187, 167); fill-opacity: 1;"/><path class="point" transform="translate(675.73,23.17)" d="M3,0A3,3 0 1,1 0,-3A3,3 0 0,1 3,0Z" style="opacity: 1; stroke-width: 0px; fill: rgb(205, 187, 167); fill-opacity: 1;"/><path class="point" transform="translate(676.42,23.17)" d="M3,0A3,3 0 1,1 0,-3A3,3 0 0,1 3,0Z" style="opacity: 1; stroke-width: 0px; fill: rgb(205, 187, 167); fill-opacity: 1;"/><path class="point" transform="translate(677.35,23.17)" d="M3,0A3,3 0 1,1 0,-3A3,3 0 0,1 3,0Z" style="opacity: 1; stroke-width: 0px; fill: rgb(205, 187, 167); fill-opacity: 1;"/><path class="point" transform="translate(677.8,23.17)" d="M3,0A3,3 0 1,1 0,-3A3,3 0 0,1 3,0Z" style="opacity: 1; stroke-width: 0px; fill: rgb(205, 187, 167); fill-opacity: 1;"/><path class="point" transform="translate(677.83,23.17)" d="M3,0A3,3 0 1,1 0,-3A3,3 0 0,1 3,0Z" style="opacity: 1; stroke-width: 0px; fill: rgb(205, 187, 167); fill-opacity: 1;"/><path class="point" transform="translate(678.14,23.17)" d="M3,0A3,3 0 1,1 0,-3A3,3 0 0,1 3,0Z" style="opacity: 1; stroke-width: 0px; fill: rgb(205, 187, 167); fill-opacity: 1;"/><path class="point" transform="translate(678.9,23.17)" d="M3,0A3,3 0 1,1 0,-3A3,3 0 0,1 3,0Z" style="opacity: 1; stroke-width: 0px; fill: rgb(205, 187, 167); fill-opacity: 1;"/><path class="point" transform="translate(679.14,23.17)" d="M3,0A3,3 0 1,1 0,-3A3,3 0 0,1 3,0Z" style="opacity: 1; stroke-width: 0px; fill: rgb(205, 187, 167); fill-opacity: 1;"/><path class="point" transform="translate(680.38,23.17)" d="M3,0A3,3 0 1,1 0,-3A3,3 0 0,1 3,0Z" style="opacity: 1; stroke-width: 0px; fill: rgb(205, 187, 167); fill-opacity: 1;"/><path class="point" transform="translate(680.93,23.17)" d="M3,0A3,3 0 1,1 0,-3A3,3 0 0,1 3,0Z" style="opacity: 1; stroke-width: 0px; fill: rgb(205, 187, 167); fill-opacity: 1;"/><path class="point" transform="translate(681.73,23.17)" d="M3,0A3,3 0 1,1 0,-3A3,3 0 0,1 3,0Z" style="opacity: 1; stroke-width: 0px; fill: rgb(205, 187, 167); fill-opacity: 1;"/><path class="point" transform="translate(684.93,23.17)" d="M3,0A3,3 0 1,1 0,-3A3,3 0 0,1 3,0Z" style="opacity: 1; stroke-width: 0px; fill: rgb(205, 187, 167); fill-opacity: 1;"/><path class="point" transform="translate(685.41,23.17)" d="M3,0A3,3 0 1,1 0,-3A3,3 0 0,1 3,0Z" style="opacity: 1; stroke-width: 0px; fill: rgb(205, 187, 167); fill-opacity: 1;"/><path class="point" transform="translate(688.13,23.17)" d="M3,0A3,3 0 1,1 0,-3A3,3 0 0,1 3,0Z" style="opacity: 1; stroke-width: 0px; fill: rgb(205, 187, 167); fill-opacity: 1;"/><path class="point" transform="translate(688.72,23.17)" d="M3,0A3,3 0 1,1 0,-3A3,3 0 0,1 3,0Z" style="opacity: 1; stroke-width: 0px; fill: rgb(205, 187, 167); fill-opacity: 1;"/><path class="point" transform="translate(689.75,23.17)" d="M3,0A3,3 0 1,1 0,-3A3,3 0 0,1 3,0Z" style="opacity: 1; stroke-width: 0px; fill: rgb(205, 187, 167); fill-opacity: 1;"/><path class="point" transform="translate(690.65,23.17)" d="M3,0A3,3 0 1,1 0,-3A3,3 0 0,1 3,0Z" style="opacity: 1; stroke-width: 0px; fill: rgb(205, 187, 167); fill-opacity: 1;"/></g></g></g></g><g class="overplot"/><path class="xlines-above crisp" d="M0,0" style="fill: none;"/><path class="ylines-above crisp" d="M0,0" style="fill: none;"/><g class="overlines-above"/><g class="xaxislayer-above"/><g class="yaxislayer-above"/><g class="overaxes-above"/></g></g><g class="polarlayer"/><g class="smithlayer"/><g class="ternarylayer"/><g class="geolayer"/><g class="funnelarealayer"/><g class="pielayer"/><g class="iciclelayer"/><g class="treemaplayer"/><g class="sunburstlayer"/><g class="glimages"/><defs id="topdefs-1aab17"><g class="clips"/><clipPath id="legend1aab17"><rect width="66" height="67" x="0" y="0"/></clipPath></defs><g class="layer-above"><g class="imagelayer"/><g class="shapelayer"/></g><g class="infolayer"><g class="legend" pointer-events="all" transform="translate(821.54,60)"><rect class="bg" shape-rendering="crispEdges" width="66" height="67" x="0" y="0" style="stroke: rgb(68, 68, 68); stroke-opacity: 1; fill: rgb(244, 242, 240); fill-opacity: 1; stroke-width: 0px;"/><g class="scrollbox" transform="" clip-path="url(#legend1aab17)"><text class="legendtitletext" text-anchor="start" x="2" y="18.2" style="font-family: 'Open Sans', verdana, arial, sans-serif; font-size: 14px; fill: rgb(40, 34, 29); fill-opacity: 1; white-space: pre;">Attrition</text><g class="groups" transform=""><g class="traces" transform="translate(0,32.7)" style="opacity: 1;"><text class="legendtext" text-anchor="start" x="40" y="4.680000000000001" style="font-family: 'Open Sans', verdana, arial, sans-serif; font-size: 12px; fill: rgb(40, 34, 29); fill-opacity: 1; white-space: pre;">Yes</text><g class="layers" style="opacity: 1;"><g class="legendfill"/><g class="legendlines"/><g class="legendsymbols"><g class="legendpoints"><path class="legendundefined" d="M6,6H-6V-6H6Z" transform="translate(20,0)" style="stroke-width: 0px; fill: rgb(192, 43, 52); fill-opacity: 1;"/></g></g></g><rect class="legendtoggle" x="0" y="-9.5" width="60.703125" height="19" style="fill: rgb(0, 0, 0); fill-opacity: 0;"/></g></g><g class="groups" transform=""><g class="traces" transform="translate(0,51.7)" style="opacity: 1;"><text class="legendtext" text-anchor="start" x="40" y="4.680000000000001" style="font-family: 'Open Sans', verdana, arial, sans-serif; font-size: 12px; fill: rgb(40, 34, 29); fill-opacity: 1; white-space: pre;">No</text><g class="layers" style="opacity: 1;"><g class="legendfill"/><g class="legendlines"/><g class="legendsymbols"><g class="legendpoints"><path class="legendundefined" d="M6,6H-6V-6H6Z" transform="translate(20,0)" style="stroke-width: 0px; fill: rgb(205, 187, 167); fill-opacity: 1;"/></g></g></g><rect class="legendtoggle" x="0" y="-9.5" width="60.703125" height="19" style="fill: rgb(0, 0, 0); fill-opacity: 0;"/></g></g></g><rect class="scrollbar" rx="20" ry="3" width="0" height="0" x="0" y="0" style="fill: rgb(128, 139, 164); fill-opacity: 1;"/></g><g class="g-gtitle"><text class="gtitle" x="45" y="30" text-anchor="start" dy="0em" style="font-family: 'Open Sans', verdana, arial, sans-serif; font-size: 17px; fill: rgb(40, 34, 29); opacity: 1; font-weight: normal; white-space: pre;">Distribution of Monthly Income by Attrition Status</text></g><g class="g-xtitle"><text class="xtitle" x="443.5" y="460.471875" text-anchor="middle" style="font-family: 'Open Sans', verdana, arial, sans-serif; font-size: 14px; fill: rgb(40, 34, 29); opacity: 1; font-weight: normal; white-space: pre;">Monthly Income, $</text></g><g class="g-x2title"/><g class="g-ytitle"><text class="ytitle" transform="rotate(-90,34.575,288.132)" x="34.575" y="288.132" text-anchor="middle" style="font-family: 'Open Sans', verdana, arial, sans-serif; font-size: 14px; fill: rgb(40, 34, 29); opacity: 1; font-weight: normal; white-space: pre;">Density</text></g><g class="g-y2title"/></g></svg>