<svg class="main-svg" xmlns="http://www.w3.org/2000/svg" xmlns:xlink="http://www.w3.org/1999/xlink" width="900" height="500" style="" viewBox="0 0 900 500"><rect x="0" y="0" width="900" height="500" style="fill: rgb(244, 242, 240); fill-opacity: 1;"/><defs id="defs-f22a0d"><g class="clips"><clipPath id="clipf22a0dxyplot" class="plotclip"><rect width="705" height="320"/></clipPath><clipPath class="axesclip" id="clipf22a0dx"><rect x="80" y="0" width="705" height="500"/></clipPath><clipPath class="axesclip" id="clipf22a0dy"><rect x="0" y="100" width="900" height="320"/></clipPath><clipPath class="axesclip" id="clipf22a0dxy"><rect x="80" y="100" width="705" height="320"/></clipPath></g><g class="gradients"/><g class="patterns"/></defs><g class="bglayer"/><g class="layer-below"><g class="imagelayer"/><g class="shapelayer"/></g><g class="cartesianlayer"><g class="subplot xy"><g class="layer-subplot"><g class="shapelayer"/><g class="imagelayer"/></g><g class="gridlayer"><g class="x"/><g class="y"><path class="ygrid crisp" transform="translate(0,343.47)" d="M80,0h705" style="stroke: rgb(255, 255, 255); stroke-opacity: 1; stroke-width: 1px;"/><path class="ygrid crisp" transform="translate(0,267.64)" d="M80,0h705" style="stroke: rgb(255, 255, 255); stroke-opacity: 1; stroke-width: 1px;"/><path class="ygrid crisp" transform="translate(0,191.81)" d="M80,0h705" style="stroke: rgb(255, 255, 255); stroke-opacity: 1; stroke-width: 1px;"/><path class="ygrid crisp" transform="translate(0,115.98)" d="M80,0h705" style="stroke: rgb(255, 255, 255); stroke-opacity: 1; stroke-width: 1px;"/></g></g><g class="zerolinelayer"><path class="yzl zl crisp" transform="translate(0,419.3)" d="M80,0h705" style="stroke: rgb(255, 255, 255); stroke-opacity: 1; stroke-width: 2px;"/></g><path class="xlines-below"/><path class="ylines-below"/><g class="overlines-below"/><g class="xaxislayer-below"/><g class="yaxislayer-below"/><g class="overaxes-below"/><g class="plot" transform="translate(80,100)" clip-path="url(#clipf22a0dxyplot)"><g class="boxlayer mlayer"><g class="trace boxes" style="opacity: 1;"><path class="box" d="M49.09,237.35H70.5M38.39,259.61H81.2V257.65L70.5,237.35L81.2,217.05V188.78H38.39V217.05L49.09,237.35L38.39,257.65ZM59.79,259.61V296.34M59.79,188.78V85.72M49.09,296.34H70.5M49.09,85.72H70.5" style="vector-effect: non-scaling-stroke; stroke-width: 2px; stroke: rgb(33, 77, 92); stroke-opacity: 1; fill: rgb(33, 77, 92); fill-opacity: 0.5;"/><path class="box" d="M223.84,241.94H245.25M213.14,275.26H255.95V251.94L245.25,241.94L255.95,231.94V201.01H213.14V231.94L223.84,241.94L213.14,251.94ZM234.54,275.26V297.83M234.54,201.01V110.47M223.84,297.83H245.25M223.84,110.47H245.25" style="vector-effect: non-scaling-stroke; stroke-width: 2px; stroke: rgb(33, 77, 92); stroke-opacity: 1; fill: rgb(33, 77, 92); fill-opacity: 0.5;"/><path class="box" d="M398.59,243.43H420M387.89,274.16H430.7V251.22L420,243.43L430.7,235.64V179.39H387.89V235.64L398.59,243.43L387.89,251.22ZM409.29,274.16V302.18M409.29,179.39V45.39M398.59,302.18H420M398.59,45.39H420" style="vector-effect: non-scaling-stroke; stroke-width: 2px; stroke: rgb(33, 77, 92); stroke-opacity: 1; fill: rgb(33, 77, 92); fill-opacity: 0.5;"/><path class="box" d="M573.34,241.14H594.75M562.64,264.85H605.45V256.44L594.75,241.14L605.45,225.84V191.29H562.64V225.84L573.34,241.14L562.64,256.44ZM584.04,264.85V300.18M584.04,191.29V114.18M573.34,300.18H594.75M573.34,114.18H594.75" style="vector-effect: non-scaling-stroke; stroke-width: 2px; stroke: rgb(33, 77, 92); stroke-opacity: 1; fill: rgb(33, 77, 92); fill-opacity: 0.5;"/><g class="points"><path class="point" transform="translate(59.79,68.23)" d="M3,0A3,3 0 1,1 0,-3A3,3 0 0,1 3,0Z" style="opacity: 1; stroke-width: 0px; fill: rgb(33, 77, 92); fill-opacity: 1;"/><path class="point" transform="translate(59.79,22.57)" d="M3,0A3,3 0 1,1 0,-3A3,3 0 0,1 3,0Z" style="opacity: 1; stroke-width: 0px; fill: rgb(33, 77, 92); fill-opacity: 1;"/></g><g class="points"><path class="point" transform="translate(234.54,74.77)" d="M3,0A3,3 0 1,1 0,-3A3,3 0 0,1 3,0Z" style="opacity: 1; stroke-width: 0px; fill: rgb(33, 77, 92); fill-opacity: 1;"/><path class="point" transform="translate(234.54,71.99)" d="M3,0A3,3 0 1,1 0,-3A3,3 0 0,1 3,0Z" style="opacity: 1; stroke-width: 0px; fill: rgb(33, 77, 92); fill-opacity: 1;"/><path class="point" transform="translate(234.54,65.24)" d="M3,0A3,3 0 1,1 0,-3A3,3 0 0,1 3,0Z" style="opacity: 1; stroke-width: 0px; fill: rgb(33, 77, 92); fill-opacity: 1;"/><path class="point" transform="translate(234.54,63.42)" d="M3,0A3,3 0 1,1 0,-3A3,3 0 0,1 3,0Z" style="opacity: 1; stroke-width: 0px; fill: rgb(33, 77, 92); fill-opacity: 1;"/><path class="point" transform="translate(234.54,56.51)" d="M3,0A3,3 0 1,1 0,-3A3,3 0 0,1 3,0Z" style="opacity: 1; stroke-width: 0px; fill: rgb(33, 77, 92); fill-opacity: 1;"/><path class="point" transform="translate(234.54,48.21)" d="M3,0A3,3 0 1,1 0,-3A3,3 0 0,1 3,0Z" style="opacity: 1; stroke-width: 0px; fill: rgb(33, 77, 92); fill-opacity: 1;"/><path class="point" transform="translate(234.54,43.71)" d="M3,0A3,3 0 1,1 0,-3A3,3 0 0,1 3,0Z" style="opacity: 1; stroke-width: 0px; fill: rgb(33, 77, 92); fill-opacity: 1;"/><path class="point" transform="translate(234.54,35.09)" d="M3,0A3,3 0 1,1 0,-3A3,3 0 0,1 3,0Z" style="opacity: 1; stroke-width: 0px; fill: rgb(33, 77, 92); fill-opacity: 1;"/><path class="point" transform="translate(234.54,31.95)" d="M3,0A3,3 0 1,1 0,-3A3,3 0 0,1 3,0Z" style="opacity: 1; stroke-width: 0px; fill: rgb(33, 77, 92); fill-opacity: 1;"/><path class="point" transform="translate(234.54,30.41)" d="M3,0A3,3 0 1,1 0,-3A3,3 0 0,1 3,0Z" style="opacity: 1; stroke-width: 0px; fill: rgb(33, 77, 92); fill-opacity: 1;"/><path class="point" transform="translate(234.54,29.73)" d="M3,0A3,3 0 1,1 0,-3A3,3 0 0,1 3,0Z" style="opacity: 1; stroke-width: 0px; fill: rgb(33, 77, 92); fill-opacity: 1;"/><path class="point" transform="translate(234.54,23.31)" d="M3,0A3,3 0 1,1 0,-3A3,3 0 0,1 3,0Z" style="opacity: 1; stroke-width: 0px; fill: rgb(33, 77, 92); fill-opacity: 1;"/></g><g class="points"><path class="point" transform="translate(409.29,37.13)" d="M3,0A3,3 0 1,1 0,-3A3,3 0 0,1 3,0Z" style="opacity: 1; stroke-width: 0px; fill: rgb(33, 77, 92); fill-opacity: 1;"/><path class="point" transform="translate(409.29,36.23)" d="M3,0A3,3 0 1,1 0,-3A3,3 0 0,1 3,0Z" style="opacity: 1; stroke-width: 0px; fill: rgb(33, 77, 92); fill-opacity: 1;"/><path class="point" transform="translate(409.29,34.35)" d="M3,0A3,3 0 1,1 0,-3A3,3 0 0,1 3,0Z" style="opacity: 1; stroke-width: 0px; fill: rgb(33, 77, 92); fill-opacity: 1;"/><path class="point" transform="translate(409.29,33.82)" d="M3,0A3,3 0 1,1 0,-3A3,3 0 0,1 3,0Z" style="opacity: 1; stroke-width: 0px; fill: rgb(33, 77, 92); fill-opacity: 1;"/><path class="point" transform="translate(409.29,33.52)" d="M3,0A3,3 0 1,1 0,-3A3,3 0 0,1 3,0Z" style="opacity: 1; stroke-width: 0px; fill: rgb(33, 77, 92); fill-opacity: 1;"/><path class="point" transform="translate(409.29,30.65)" d="M3,0A3,3 0 1,1 0,-3A3,3 0 0,1 3,0Z" style="opacity: 1; stroke-width: 0px; fill: rgb(33, 77, 92); fill-opacity: 1;"/><path class="point" transform="translate(409.29,28.31)" d="M3,0A3,3 0 1,1 0,-3A3,3 0 0,1 3,0Z" style="opacity: 1; stroke-width: 0px; fill: rgb(33, 77, 92); fill-opacity: 1;"/><path class="point" transform="translate(409.29,25.21)" d="M3,0A3,3 0 1,1 0,-3A3,3 0 0,1 3,0Z" style="opacity: 1; stroke-width: 0px; fill: rgb(33, 77, 92); fill-opacity: 1;"/><path class="point" transform="translate(409.29,22.89)" d="M3,0A3,3 0 1,1 0,-3A3,3 0 0,1 3,0Z" style="opacity: 1; stroke-width: 0px; fill: rgb(33, 77, 92); fill-opacity: 1;"/><path class="point" transform="translate(409.29,21.17)" d="M3,0A3,3 0 1,1 0,-3A3,3 0 0,1 3,0Z" style="opacity: 1; stroke-width: 0px; fill: rgb(33, 77, 92); fill-opacity: 1;"/><path class="point" transform="translate(409.29,20.52)" d="M3,0A3,3 0 1,1 0,-3A3,3 0 0,1 3,0Z" style="opacity: 1; stroke-width: 0px; fill: rgb(33, 77, 92); fill-opacity: 1;"/><path class="point" transform="translate(409.29,18.34)" d="M3,0A3,3 0 1,1 0,-3A3,3 0 0,1 3,0Z" style="opacity: 1; stroke-width: 0px; fill: rgb(33, 77, 92); fill-opacity: 1;"/><path class="point" transform="translate(409.29,17.11)" d="M3,0A3,3 0 1,1 0,-3A3,3 0 0,1 3,0Z" style="opacity: 1; stroke-width: 0px; fill: rgb(33, 77, 92); fill-opacity: 1;"/><path class="point" transform="translate(409.29,16.85)" d="M3,0A3,3 0 1,1 0,-3A3,3 0 0,1 3,0Z" style="opacity: 1; stroke-width: 0px; fill: rgb(33, 77, 92); fill-opacity: 1;"/><path class="point" transform="translate(409.29,16.39)" d="M3,0A3,3 0 1,1 0,-3A3,3 0 0,1 3,0Z" style="opacity: 1; stroke-width: 0px; fill: rgb(33, 77, 92); fill-opacity: 1;"/></g><g class="points"><path class="point" transform="translate(584.04,70.25)" d="M3,0A3,3 0 1,1 0,-3A3,3 0 0,1 3,0Z" style="opacity: 1; stroke-width: 0px; fill: rgb(33, 77, 92); fill-opacity: 1;"/><path class="point" transform="translate(584.04,67.46)" d="M3,0A3,3 0 1,1 0,-3A3,3 0 0,1 3,0Z" style="opacity: 1; stroke-width: 0px; fill: rgb(33, 77, 92); fill-opacity: 1;"/><path class="point" transform="translate(584.04,58.92)" d="M3,0A3,3 0 1,1 0,-3A3,3 0 0,1 3,0Z" style="opacity: 1; stroke-width: 0px; fill: rgb(33, 77, 92); fill-opacity: 1;"/><path class="point" transform="translate(584.04,51.62)" d="M3,0A3,3 0 1,1 0,-3A3,3 0 0,1 3,0Z" style="opacity: 1; stroke-width: 0px; fill: rgb(33, 77, 92); fill-opacity: 1;"/></g></g><g class="trace boxes" style="opacity: 1;"><path class="box" d="M110.25,262.68H131.66M99.55,282.36H142.36V275.85L131.66,262.68L142.36,249.51V223.04H99.55V249.51L110.25,262.68L99.55,275.85ZM120.96,282.36V295.6M120.96,223.04V138.77M110.25,295.6H131.66M110.25,138.77H131.66" style="vector-effect: non-scaling-stroke; stroke-width: 2px; stroke: rgb(145, 171, 180); stroke-opacity: 1; fill: rgb(145, 171, 180); fill-opacity: 0.5;"/><path class="box" d="M285,245.49H306.41M274.3,276.26H317.11V255.01L306.41,245.49L317.11,235.97V188.83H274.3V235.97L285,245.49L274.3,255.01ZM295.71,276.26V302.91M295.71,188.83V58.74M285,302.91H306.41M285,58.74H306.41" style="vector-effect: non-scaling-stroke; stroke-width: 2px; stroke: rgb(145, 171, 180); stroke-opacity: 1; fill: rgb(145, 171, 180); fill-opacity: 0.5;"/><path class="box" d="M459.75,244.95H481.16M449.05,275.72H491.86V250.15L481.16,244.95L491.86,239.76V199.66H449.05V239.76L459.75,244.95L449.05,250.15ZM470.46,275.72V304M470.46,199.66V86.07M459.75,304H481.16M459.75,86.07H481.16" style="vector-effect: non-scaling-stroke; stroke-width: 2px; stroke: rgb(145, 171, 180); stroke-opacity: 1; fill: rgb(145, 171, 180); fill-opacity: 0.5;"/><path class="box" d="M634.5,245.48H655.91M623.8,275.68H666.61V263.18L655.91,245.48L666.61,227.79V165.24H623.8V227.79L634.5,245.48L623.8,263.18ZM645.21,275.68V288.47M645.21,165.24V21.66M634.5,288.47H655.91M634.5,21.66H655.91" style="vector-effect: non-scaling-stroke; stroke-width: 2px; stroke: rgb(145, 171, 180); stroke-opacity: 1; fill: rgb(145, 171, 180); fill-opacity: 0.5;"/><g class="points"><path class="point" transform="translate(120.96,129.88)" d="M3,0A3,3 0 1,1 0,-3A3,3 0 0,1 3,0Z" style="opacity: 1; stroke-width: 0px; fill: rgb(145, 171, 180); fill-opacity: 1;"/><path class="point" transform="translate(120.96,123.12)" d="M3,0A3,3 0 1,1 0,-3A3,3 0 0,1 3,0Z" style="opacity: 1; stroke-width: 0px; fill: rgb(145, 171, 180); fill-opacity: 1;"/><path class="point" transform="translate(120.96,52.88)" d="M3,0A3,3 0 1,1 0,-3A3,3 0 0,1 3,0Z" style="opacity: 1; stroke-width: 0px; fill: rgb(145, 171, 180); fill-opacity: 1;"/><path class="point" transform="translate(120.96,48.42)" d="M3,0A3,3 0 1,1 0,-3A3,3 0 0,1 3,0Z" style="opacity: 1; stroke-width: 0px; fill: rgb(145, 171, 180); fill-opacity: 1;"/></g><g class="points"><path class="point" transform="translate(295.71,55.43)" d="M3,0A3,3 0 1,1 0,-3A3,3 0 0,1 3,0Z" style="opacity: 1; stroke-width: 0px; fill: rgb(145, 171, 180); fill-opacity: 1;"/><path class="point" transform="translate(295.71,52.63)" d="M3,0A3,3 0 1,1 0,-3A3,3 0 0,1 3,0Z" style="opacity: 1; stroke-width: 0px; fill: rgb(145, 171, 180); fill-opacity: 1;"/><path class="point" transform="translate(295.71,48.42)" d="M3,0A3,3 0 1,1 0,-3A3,3 0 0,1 3,0Z" style="opacity: 1; stroke-width: 0px; fill: rgb(145, 171, 180); fill-opacity: 1;"/><path class="point" transform="translate(295.71,39.8)" d="M3,0A3,3 0 1,1 0,-3A3,3 0 0,1 3,0Z" style="opacity: 1; stroke-width: 0px; fill: rgb(145, 171, 180); fill-opacity: 1;"/><path class="point" transform="translate(295.71,32.97)" d="M3,0A3,3 0 1,1 0,-3A3,3 0 0,1 3,0Z" style="opacity: 1; stroke-width: 0px; fill: rgb(145, 171, 180); fill-opacity: 1;"/><path class="point" transform="translate(295.71,29.01)" d="M3,0A3,3 0 1,1 0,-3A3,3 0 0,1 3,0Z" style="opacity: 1; stroke-width: 0px; fill: rgb(145, 171, 180); fill-opacity: 1;"/><path class="point" transform="translate(295.71,28.97)" d="M3,0A3,3 0 1,1 0,-3A3,3 0 0,1 3,0Z" style="opacity: 1; stroke-width: 0px; fill: rgb(145, 171, 180); fill-opacity: 1;"/><path class="point" transform="translate(295.71,28.27)" d="M3,0A3,3 0 1,1 0,-3A3,3 0 0,1 3,0Z" style="opacity: 1; stroke-width: 0px; fill: rgb(145, 171, 180); fill-opacity: 1;"/><path class="point" transform="translate(295.71,27.56)" d="M3,0A3,3 0 1,1 0,-3A3,3 0 0,1 3,0Z" style="opacity: 1; stroke-width: 0px; fill: rgb(145, 171, 180); fill-opacity: 1;"/><path class="point" transform="translate(295.71,24.99)" d="M3,0A3,3 0 1,1 0,-3A3,3 0 0,1 3,0Z" style="opacity: 1; stroke-width: 0px; fill: rgb(145, 171, 180); fill-opacity: 1;"/><path class="point" transform="translate(295.71,24.61)" d="M3,0A3,3 0 1,1 0,-3A3,3 0 0,1 3,0Z" style="opacity: 1; stroke-width: 0px; fill: rgb(145, 171, 180); fill-opacity: 1;"/><path class="point" transform="translate(295.71,18.52)" d="M3,0A3,3 0 1,1 0,-3A3,3 0 0,1 3,0Z" style="opacity: 1; stroke-width: 0px; fill: rgb(145, 171, 180); fill-opacity: 1;"/><path class="point" transform="translate(295.71,18.31)" d="M3,0A3,3 0 1,1 0,-3A3,3 0 0,1 3,0Z" style="opacity: 1; stroke-width: 0px; fill: rgb(145, 171, 180); fill-opacity: 1;"/></g><g class="points"><path class="point" transform="translate(470.46,79.88)" d="M3,0A3,3 0 1,1 0,-3A3,3 0 0,1 3,0Z" style="opacity: 1; stroke-width: 0px; fill: rgb(145, 171, 180); fill-opacity: 1;"/><path class="point" transform="translate(470.46,76.42)" d="M3,0A3,3 0 1,1 0,-3A3,3 0 0,1 3,0Z" style="opacity: 1; stroke-width: 0px; fill: rgb(145, 171, 180); fill-opacity: 1;"/><path class="point" transform="translate(470.46,70.02)" d="M3,0A3,3 0 1,1 0,-3A3,3 0 0,1 3,0Z" style="opacity: 1; stroke-width: 0px; fill: rgb(145, 171, 180); fill-opacity: 1;"/><path class="point" transform="translate(470.46,64.64)" d="M3,0A3,3 0 1,1 0,-3A3,3 0 0,1 3,0Z" style="opacity: 1; stroke-width: 0px; fill: rgb(145, 171, 180); fill-opacity: 1;"/><path class="point" transform="translate(470.46,64.17)" d="M3,0A3,3 0 1,1 0,-3A3,3 0 0,1 3,0Z" style="opacity: 1; stroke-width: 0px; fill: rgb(145, 171, 180); fill-opacity: 1;"/><path class="point" transform="translate(470.46,60.78)" d="M3,0A3,3 0 1,1 0,-3A3,3 0 0,1 3,0Z" style="opacity: 1; stroke-width: 0px; fill: rgb(145, 171, 180); fill-opacity: 1;"/><path class="point" transform="translate(470.46,60.45)" d="M3,0A3,3 0 1,1 0,-3A3,3 0 0,1 3,0Z" style="opacity: 1; stroke-width: 0px; fill: rgb(145, 171, 180); fill-opacity: 1;"/><path class="point" transform="translate(470.46,59.07)" d="M3,0A3,3 0 1,1 0,-3A3,3 0 0,1 3,0Z" style="opacity: 1; stroke-width: 0px; fill: rgb(145, 171, 180); fill-opacity: 1;"/><path class="point" transform="translate(470.46,54.75)" d="M3,0A3,3 0 1,1 0,-3A3,3 0 0,1 3,0Z" style="opacity: 1; stroke-width: 0px; fill: rgb(145, 171, 180); fill-opacity: 1;"/><path class="point" transform="translate(470.46,54.43)" d="M3,0A3,3 0 1,1 0,-3A3,3 0 0,1 3,0Z" style="opacity: 1; stroke-width: 0px; fill: rgb(145, 171, 180); fill-opacity: 1;"/><path class="point" transform="translate(470.46,52.34)" d="M3,0A3,3 0 1,1 0,-3A3,3 0 0,1 3,0Z" style="opacity: 1; stroke-width: 0px; fill: rgb(145, 171, 180); fill-opacity: 1;"/><path class="point" transform="translate(470.46,51.79)" d="M3,0A3,3 0 1,1 0,-3A3,3 0 0,1 3,0Z" style="opacity: 1; stroke-width: 0px; fill: rgb(145, 171, 180); fill-opacity: 1;"/><path class="point" transform="translate(470.46,51.4)" d="M3,0A3,3 0 1,1 0,-3A3,3 0 0,1 3,0Z" style="opacity: 1; stroke-width: 0px; fill: rgb(145, 171, 180); fill-opacity: 1;"/><path class="point" transform="translate(470.46,49.67)" d="M3,0A3,3 0 1,1 0,-3A3,3 0 0,1 3,0Z" style="opacity: 1; stroke-width: 0px; fill: rgb(145, 171, 180); fill-opacity: 1;"/><path class="point" transform="translate(470.46,47.47)" d="M3,0A3,3 0 1,1 0,-3A3,3 0 0,1 3,0Z" style="opacity: 1; stroke-width: 0px; fill: rgb(145, 171, 180); fill-opacity: 1;"/><path class="point" transform="translate(470.46,43.28)" d="M3,0A3,3 0 1,1 0,-3A3,3 0 0,1 3,0Z" style="opacity: 1; stroke-width: 0px; fill: rgb(145, 171, 180); fill-opacity: 1;"/><path class="point" transform="translate(470.46,43.09)" d="M3,0A3,3 0 1,1 0,-3A3,3 0 0,1 3,0Z" style="opacity: 1; stroke-width: 0px; fill: rgb(145, 171, 180); fill-opacity: 1;"/><path class="point" transform="translate(470.46,41.77)" d="M3,0A3,3 0 1,1 0,-3A3,3 0 0,1 3,0Z" style="opacity: 1; stroke-width: 0px; fill: rgb(145, 171, 180); fill-opacity: 1;"/><path class="point" transform="translate(470.46,35.37)" d="M3,0A3,3 0 1,1 0,-3A3,3 0 0,1 3,0Z" style="opacity: 1; stroke-width: 0px; fill: rgb(145, 171, 180); fill-opacity: 1;"/><path class="point" transform="translate(470.46,30.57)" d="M3,0A3,3 0 1,1 0,-3A3,3 0 0,1 3,0Z" style="opacity: 1; stroke-width: 0px; fill: rgb(145, 171, 180); fill-opacity: 1;"/><path class="point" transform="translate(470.46,30.47)" d="M3,0A3,3 0 1,1 0,-3A3,3 0 0,1 3,0Z" style="opacity: 1; stroke-width: 0px; fill: rgb(145, 171, 180); fill-opacity: 1;"/><path class="point" transform="translate(470.46,29.92)" d="M3,0A3,3 0 1,1 0,-3A3,3 0 0,1 3,0Z" style="opacity: 1; stroke-width: 0px; fill: rgb(145, 171, 180); fill-opacity: 1;"/><path class="point" transform="translate(470.46,28.71)" d="M3,0A3,3 0 1,1 0,-3A3,3 0 0,1 3,0Z" style="opacity: 1; stroke-width: 0px; fill: rgb(145, 171, 180); fill-opacity: 1;"/><path class="point" transform="translate(470.46,28.28)" d="M3,0A3,3 0 1,1 0,-3A3,3 0 0,1 3,0Z" style="opacity: 1; stroke-width: 0px; fill: rgb(145, 171, 180); fill-opacity: 1;"/><path class="point" transform="translate(470.46,28.16)" d="M3,0A3,3 0 1,1 0,-3A3,3 0 0,1 3,0Z" style="opacity: 1; stroke-width: 0px; fill: rgb(145, 171, 180); fill-opacity: 1;"/><path class="point" transform="translate(470.46,28.09)" d="M3,0A3,3 0 1,1 0,-3A3,3 0 0,1 3,0Z" style="opacity: 1; stroke-width: 0px; fill: rgb(145, 171, 180); fill-opacity: 1;"/><path class="point" transform="translate(470.46,27.63)" d="M3,0A3,3 0 1,1 0,-3A3,3 0 0,1 3,0Z" style="opacity: 1; stroke-width: 0px; fill: rgb(145, 171, 180); fill-opacity: 1;"/><path class="point" transform="translate(470.46,27.42)" d="M3,0A3,3 0 1,1 0,-3A3,3 0 0,1 3,0Z" style="opacity: 1; stroke-width: 0px; fill: rgb(145, 171, 180); fill-opacity: 1;"/><path class="point" transform="translate(470.46,27.03)" d="M3,0A3,3 0 1,1 0,-3A3,3 0 0,1 3,0Z" style="opacity: 1; stroke-width: 0px; fill: rgb(145, 171, 180); fill-opacity: 1;"/><path class="point" transform="translate(470.46,26.18)" d="M3,0A3,3 0 1,1 0,-3A3,3 0 0,1 3,0Z" style="opacity: 1; stroke-width: 0px; fill: rgb(145, 171, 180); fill-opacity: 1;"/><path class="point" transform="translate(470.46,26.13)" d="M3,0A3,3 0 1,1 0,-3A3,3 0 0,1 3,0Z" style="opacity: 1; stroke-width: 0px; fill: rgb(145, 171, 180); fill-opacity: 1;"/><path class="point" transform="translate(470.46,24.54)" d="M3,0A3,3 0 1,1 0,-3A3,3 0 0,1 3,0Z" style="opacity: 1; stroke-width: 0px; fill: rgb(145, 171, 180); fill-opacity: 1;"/><path class="point" transform="translate(470.46,23.54)" d="M3,0A3,3 0 1,1 0,-3A3,3 0 0,1 3,0Z" style="opacity: 1; stroke-width: 0px; fill: rgb(145, 171, 180); fill-opacity: 1;"/><path class="point" transform="translate(470.46,23.01)" d="M3,0A3,3 0 1,1 0,-3A3,3 0 0,1 3,0Z" style="opacity: 1; stroke-width: 0px; fill: rgb(145, 171, 180); fill-opacity: 1;"/><path class="point" transform="translate(470.46,22.26)" d="M3,0A3,3 0 1,1 0,-3A3,3 0 0,1 3,0Z" style="opacity: 1; stroke-width: 0px; fill: rgb(145, 171, 180); fill-opacity: 1;"/><path class="point" transform="translate(470.46,21.85)" d="M3,0A3,3 0 1,1 0,-3A3,3 0 0,1 3,0Z" style="opacity: 1; stroke-width: 0px; fill: rgb(145, 171, 180); fill-opacity: 1;"/><path class="point" transform="translate(470.46,21.64)" d="M3,0A3,3 0 1,1 0,-3A3,3 0 0,1 3,0Z" style="opacity: 1; stroke-width: 0px; fill: rgb(145, 171, 180); fill-opacity: 1;"/><path class="point" transform="translate(470.46,21.51)" d="M3,0A3,3 0 1,1 0,-3A3,3 0 0,1 3,0Z" style="opacity: 1; stroke-width: 0px; fill: rgb(145, 171, 180); fill-opacity: 1;"/><path class="point" transform="translate(470.46,21.07)" d="M3,0A3,3 0 1,1 0,-3A3,3 0 0,1 3,0Z" style="opacity: 1; stroke-width: 0px; fill: rgb(145, 171, 180); fill-opacity: 1;"/><path class="point" transform="translate(470.46,20.28)" d="M3,0A3,3 0 1,1 0,-3A3,3 0 0,1 3,0Z" style="opacity: 1; stroke-width: 0px; fill: rgb(145, 171, 180); fill-opacity: 1;"/><path class="point" transform="translate(470.46,19.93)" d="M3,0A3,3 0 1,1 0,-3A3,3 0 0,1 3,0Z" style="opacity: 1; stroke-width: 0px; fill: rgb(145, 171, 180); fill-opacity: 1;"/><path class="point" transform="translate(470.46,18.12)" d="M3,0A3,3 0 1,1 0,-3A3,3 0 0,1 3,0Z" style="opacity: 1; stroke-width: 0px; fill: rgb(145, 171, 180); fill-opacity: 1;"/><path class="point" transform="translate(470.46,16)" d="M3,0A3,3 0 1,1 0,-3A3,3 0 0,1 3,0Z" style="opacity: 1; stroke-width: 0px; fill: rgb(145, 171, 180); fill-opacity: 1;"/></g><g class="points"/></g></g></g><g class="overplot"/><path class="xlines-above crisp" d="M0,0" style="fill: none;"/><path class="ylines-above crisp" d="M0,0" style="fill: none;"/><g class="overlines-above"/><g class="xaxislayer-above"><g class="xtick"><text text-anchor="middle" x="0" y="433" transform="translate(170.37,0)" style="font-family: 'Open Sans', verdana, arial, sans-serif; font-size: 12px; fill: rgb(40, 34, 29); fill-opacity: 1; white-space: pre; opacity: 1;">Poor</text></g><g class="xtick"><text text-anchor="middle" x="0" y="433" style="font-family: 'Open Sans', verdana, arial, sans-serif; font-size: 12px; fill: rgb(40, 34, 29); fill-opacity: 1; white-space: pre; opacity: 1;" transform="translate(345.12,0)">Fair</text></g><g class="xtick"><text text-anchor="middle" x="0" y="433" style="font-family: 'Open Sans', verdana, arial, sans-serif; font-size: 12px; fill: rgb(40, 34, 29); fill-opacity: 1; white-space: pre; opacity: 1;" transform="translate(519.87,0)">Good</text></g><g class="xtick"><text text-anchor="middle" x="0" y="433" style="font-family: 'Open Sans', verdana, arial, sans-serif; font-size: 12px; fill: rgb(40, 34, 29); fill-opacity: 1; white-space: pre; opacity: 1;" transform="translate(694.62,0)">Excellent</text></g></g><g class="yaxislayer-above"><g class="ytick"><text text-anchor="end" x="79" y="4.199999999999999" transform="translate(0,419.3)" style="font-family: 'Open Sans', verdana, arial, sans-serif; font-size: 12px; fill: rgb(40, 34, 29); fill-opacity: 1; white-space: pre; opacity: 1;">0</text></g><g class="ytick"><text text-anchor="end" x="79" y="4.199999999999999" style="font-family: 'Open Sans', verdana, arial, sans-serif; font-size: 12px; fill: rgb(40, 34, 29); fill-opacity: 1; white-space: pre; opacity: 1;" transform="translate(0,343.47)">5k</text></g><g class="ytick"><text text-anchor="end" x="79" y="4.199999999999999" style="font-family: 'Open Sans', verdana, arial, sans-serif; font-size: 12px; fill: rgb(40, 34, 29); fill-opacity: 1; white-space: pre; opacity: 1;" transform="translate(0,267.64)">10k</text></g><g class="ytick"><text text-anchor="end" x="79" y="4.199999999999999" style="font-family: 'Open Sans', verdana, arial, sans-serif; font-size: 12px; fill: rgb(40, 34, 29); fill-opacity: 1; white-space: pre; opacity: 1;" transform="translate(0,191.81)">15k</text></g><g class="ytick"><text text-anchor="end" x="79" y="4.199999999999999" style="font-family: 'Open Sans', verdana, arial, sans-serif; font-size: 12px; fill: rgb(40, 34, 29); fill-opacity: 1; white-space: pre; opacity: 1;" transform="translate(0,115.98)">20k</text></g></g><g class="overaxes-above"/></g></g><g class="polarlayer"/><g class="smithlayer"/><g class="ternarylayer"/><g class="geolayer"/><g class="funnelarealayer"/><g class="pielayer"/><g class="iciclelayer"/><g class="treemaplayer"/><g class="sunburstlayer"/><g class="glimages"/><defs id="topdefs-f22a0d"><g class="clips"/><clipPath id="legendf22a0d"><rect width="89" height="48" x="0" y="0"/></clipPath></defs><g class="layer-above"><g class="imagelayer"/><g class="shapelayer"/></g><g class="infolayer"><g class="legend" pointer-events="all" transform="translate(799.1,100)"><rect class="bg" shape-rendering="crispEdges" width="89" height="48" x="0" y="0" style="stroke: rgb(68, 68, 68); stroke-opacity: 1; fill: rgb(244, 242, 240); fill-opacity: 1; stroke-width: 0px;"/><g class="scrollbox" transform="" clip-path="url(#legendf22a0d)"><g class="groups"><g class="traces" transform="translate(0,14.5)" style="opacity: 1;"><text class="legendtext" text-anchor="start" x="40" y="4.680000000000001" style="font-family: 'Open Sans', verdana, arial, sans-serif; font-size: 12px; fill: rgb(40, 34, 29); fill-opacity: 1; white-space: pre;">Female</text><g class="layers" style="opacity: 1;"><g class="legendfill"/><g class="legendlines"/><g class="legendsymbols"><g class="legendpoints"><path class="legendbox" d="M6,6H-6V-6H6Z" transform="translate(20,0)" style="stroke-width: 2px; fill: rgb(33, 77, 92); fill-opacity: 0.5; stroke: rgb(33, 77, 92); stroke-opacity: 1;"/></g></g></g><rect class="legendtoggle" x="0" y="-9.5" width="83.265625" height="19" style="fill: rgb(0, 0, 0); fill-opacity: 0;"/></g><g class="traces" transform="translate(0,33.5)" style="opacity: 1;"><text class="legendtext" text-anchor="start" x="40" y="4.680000000000001" style="font-family: 'Open Sans', verdana, arial, sans-serif; font-size: 12px; fill: rgb(40, 34, 29); fill-opacity: 1; white-space: pre;">Male</text><g class="layers" style="opacity: 1;"><g class="legendfill"/><g class="legendlines"/><g class="legendsymbols"><g class="legendpoints"><path class="legendbox" d="M6,6H-6V-6H6Z" transform="translate(20,0)" style="stroke-width: 2px; fill: rgb(145, 171, 180); fill-opacity: 0.5; stroke: rgb(145, 171, 180); stroke-opacity: 1;"/></g></g></g><rect class="legendtoggle" x="0" y="-9.5" width="83.265625" height="19" style="fill: rgb(0, 0, 0); fill-opacity: 0;"/></g></g></g><rect class="scrollbar" rx="20" ry="3" width="0" height="0" x="0" y="0" style="fill: rgb(128, 139, 164); fill-opacity: 1;"/></g><g class="g-gtitle"><text class="gtitle" x="45" y="50" text-anchor="start" dy="0em" style="font-family: 'Open Sans', verdana, arial, sans-serif; font-size: 17px; fill: rgb(40, 34, 29); opacity: 1; font-weight: normal; white-space: pre;">Distribution of Monthly Income by Work Life Balance</text></g><g class="g-xtitle"><text class="xtitle" x="432.5" y="460.471875" text-anchor="middle" style="font-family: 'Open Sans', verdana, arial, sans-serif; font-size: 14px; fill: rgb(40, 34, 29); opacity: 1; font-weight: normal; white-space: pre;">Work Life Balance</text></g><g class="g-ytitle"/></g></svg>