<svg class="main-svg" xmlns="http://www.w3.org/2000/svg" xmlns:xlink="http://www.w3.org/1999/xlink" width="700" height="500" style="" viewBox="0 0 700 500"><rect x="0" y="0" width="700" height="500" style="fill: rgb(255, 255, 255); fill-opacity: 1;"/><defs id="defs-979b11"><g class="clips"><clipPath id="clip979b11xyplot" class="plotclip"><rect width="505" height="320"/></clipPath><clipPath class="axesclip" id="clip979b11x"><rect x="80" y="0" width="505" height="500"/></clipPath><clipPath class="axesclip" id="clip979b11y"><rect x="0" y="100" width="700" height="320"/></clipPath><clipPath class="axesclip" id="clip979b11xy"><rect x="80" y="100" width="505" height="320"/></clipPath></g><g class="gradients"/><g class="patterns"/></defs><g class="bglayer"/><g class="layer-below"><g class="imagelayer"/><g class="shapelayer"/></g><g class="cartesianlayer"><g class="subplot xy"><g class="layer-subplot"><g class="shapelayer"/><g class="imagelayer"/></g><g class="gridlayer"><g class="x"/><g class="y"><path class="ygrid crisp" transform="translate(0,363.5)" d="M80,0h505" style="stroke: rgb(238, 238, 238); stroke-opacity: 1; stroke-width: 1px;"/><path class="ygrid crisp" transform="translate(0,296)" d="M80,0h505" style="stroke: rgb(238, 238, 238); stroke-opacity: 1; stroke-width: 1px;"/><path class="ygrid crisp" transform="translate(0,228.5)" d="M80,0h505" style="stroke: rgb(238, 238, 238); stroke-opacity: 1; stroke-width: 1px;"/><path class="ygrid crisp" transform="translate(0,161)" d="M80,0h505" style="stroke: rgb(238, 238, 238); stroke-opacity: 1; stroke-width: 1px;"/></g></g><g class="zerolinelayer"/><path class="xlines-below"/><path class="ylines-below"/><g class="overlines-below"/><g class="xaxislayer-below"/><g class="yaxislayer-below"/><g class="overaxes-below"/><g class="plot" transform="translate(80,100)" clip-path="url(#clip979b11xyplot)"><g class="boxlayer mlayer"><g class="trace boxes" style="opacity: 1;"><path class="box" d="M25.57,56.65H56.5M25.57,92.26H56.5V22.43H25.57ZM41.03,92.26V133.69M41.03,22.43V16M33.3,133.69H48.76M33.3,16H48.76" style="vector-effect: non-scaling-stroke; stroke-width: 2px; stroke: rgb(149, 200, 195); stroke-opacity: 1; fill: rgb(149, 200, 195); fill-opacity: 0.5;"/><path class="box" d="M151.82,65.66H182.75M151.82,161.43H182.75V39.54H151.82ZM167.28,161.43V263.5M167.28,39.54V16M159.55,263.5H175.01M159.55,16H175.01" style="vector-effect: non-scaling-stroke; stroke-width: 2px; stroke: rgb(149, 200, 195); stroke-opacity: 1; fill: rgb(149, 200, 195); fill-opacity: 0.5;"/><path class="box" d="M278.07,92.26H309M278.07,153.99H309V39.54H278.07ZM293.53,153.99V304M293.53,39.54V16M285.8,304H301.26M285.8,16H301.26" style="vector-effect: non-scaling-stroke; stroke-width: 2px; stroke: rgb(149, 200, 195); stroke-opacity: 1; fill: rgb(149, 200, 195); fill-opacity: 0.5;"/><path class="box" d="M404.32,138.72H435.25M404.32,167.38H435.25V85.83H404.32ZM419.78,167.38V176M419.78,85.83V29.85M412.05,176H427.51M412.05,29.85H427.51" style="vector-effect: non-scaling-stroke; stroke-width: 2px; stroke: rgb(149, 200, 195); stroke-opacity: 1; fill: rgb(149, 200, 195); fill-opacity: 0.5;"/><g class="points"/><g class="points"/><g class="points"/><g class="points"/></g><g class="trace boxes" style="opacity: 1;"><path class="box" d="M69.75,81.77H100.68M69.75,107.73H100.68V31.92H69.75ZM85.22,107.73V133.69M85.22,31.92V29.85M77.49,133.69H92.95M77.49,29.85H92.95" style="vector-effect: non-scaling-stroke; stroke-width: 2px; stroke: rgb(69, 150, 142); stroke-opacity: 1; fill: rgb(69, 150, 142); fill-opacity: 0.5;"/><path class="box" d="M196,84.88H226.93M196,211.58H226.93V55.81H196ZM211.47,211.58V237.54M211.47,55.81V29.85M203.74,237.54H219.2M203.74,29.85H219.2" style="vector-effect: non-scaling-stroke; stroke-width: 2px; stroke: rgb(69, 150, 142); stroke-opacity: 1; fill: rgb(69, 150, 142); fill-opacity: 0.5;"/><path class="box" d="M322.25,111.88H353.18M322.25,211.58H353.18V55.81H322.25ZM337.72,211.58V289.46M337.72,55.81V29.85M329.99,289.46H345.45M329.99,29.85H345.45" style="vector-effect: non-scaling-stroke; stroke-width: 2px; stroke: rgb(69, 150, 142); stroke-opacity: 1; fill: rgb(69, 150, 142); fill-opacity: 0.5;"/><path class="box" d="M448.5,163.81H479.43M448.5,185.62H479.43V107.73H448.5ZM463.97,185.62V185.62M463.97,107.73V29.85M456.24,185.62H471.7M456.24,29.85H471.7" style="vector-effect: non-scaling-stroke; stroke-width: 2px; stroke: rgb(69, 150, 142); stroke-opacity: 1; fill: rgb(69, 150, 142); fill-opacity: 0.5;"/><g class="points"/><g class="points"/><g class="points"/><g class="points"/></g></g></g><g class="overplot"/><path class="xlines-above crisp" style="fill: none;" d="M0,0"/><path class="ylines-above crisp" style="fill: none;" d="M0,0"/><g class="overlines-above"/><g class="xaxislayer-above"><g class="xtick"><text text-anchor="middle" x="0" y="433" transform="translate(143.13,0)" style="font-family: 'Franklin Gothic'; font-size: 12px; fill: rgb(68, 68, 68); fill-opacity: 1; white-space: pre; opacity: 1;">Gradient Boosting</text></g><g class="xtick"><text text-anchor="middle" x="0" y="433" transform="translate(269.38,0)" style="font-family: 'Franklin Gothic'; font-size: 12px; fill: rgb(68, 68, 68); fill-opacity: 1; white-space: pre; opacity: 1;">Random Forest</text></g><g class="xtick"><text text-anchor="middle" x="0" y="433" transform="translate(395.63,0)" style="font-family: 'Franklin Gothic'; font-size: 12px; fill: rgb(68, 68, 68); fill-opacity: 1; white-space: pre; opacity: 1;">Extra Trees</text></g><g class="xtick"><text text-anchor="middle" x="0" y="433" transform="translate(521.88,0)" style="font-family: 'Franklin Gothic'; font-size: 12px; fill: rgb(68, 68, 68); fill-opacity: 1; white-space: pre; opacity: 1;">AdaBoost</text></g></g><g class="yaxislayer-above"><g class="ytick"><text text-anchor="end" x="79" y="4.199999999999999" transform="translate(0,363.5)" style="font-family: 'Franklin Gothic'; font-size: 12px; fill: rgb(68, 68, 68); fill-opacity: 1; white-space: pre; opacity: 1;">75%</text></g><g class="ytick"><text text-anchor="end" x="79" y="4.199999999999999" style="font-family: 'Franklin Gothic'; font-size: 12px; fill: rgb(68, 68, 68); fill-opacity: 1; white-space: pre; opacity: 1;" transform="translate(0,296)">80%</text></g><g class="ytick"><text text-anchor="end" x="79" y="4.199999999999999" style="font-family: 'Franklin Gothic'; font-size: 12px; fill: rgb(68, 68, 68); fill-opacity: 1; white-space: pre; opacity: 1;" transform="translate(0,228.5)">85%</text></g><g class="ytick"><text text-anchor="end" x="79" y="4.199999999999999" style="font-family: 'Franklin Gothic'; font-size: 12px; fill: rgb(68, 68, 68); fill-opacity: 1; white-space: pre; opacity: 1;" transform="translate(0,161)">90%</text></g></g><g class="overaxes-above"/></g></g><g class="polarlayer"/><g class="smithlayer"/><g class="ternarylayer"/><g class="geolayer"/><g class="funnelarealayer"/><g class="pielayer"/><g class="iciclelayer"/><g class="treemaplayer"/><g class="sunburstlayer"/><g class="glimages"/><defs id="topdefs-979b11"><g class="clips"/><clipPath id="legend979b11"><rect width="93" height="67" x="0" y="0"/></clipPath></defs><g class="layer-above"><g class="imagelayer"/><g class="shapelayer"/></g><g class="infolayer"><g class="legend" pointer-events="all" transform="translate(595.1,100)"><rect class="bg" shape-rendering="crispEdges" style="stroke: rgb(68, 68, 68); stroke-opacity: 1; fill: rgb(255, 255, 255); fill-opacity: 1; stroke-width: 0px;" width="93" height="67" x="0" y="0"/><g class="scrollbox" transform="" clip-path="url(#legend979b11)"><text class="legendtitletext" text-anchor="start" x="2" y="18.2" style="font-family: 'Franklin Gothic'; font-size: 14px; fill: rgb(68, 68, 68); fill-opacity: 1; white-space: pre;">Metric</text><g class="groups" transform=""><g class="traces" transform="translate(0,32.7)" style="opacity: 1;"><text class="legendtext" text-anchor="start" x="40" y="4.680000000000001" style="font-family: 'Franklin Gothic'; font-size: 12px; fill: rgb(68, 68, 68); fill-opacity: 1; white-space: pre;">F1</text><g class="layers" style="opacity: 1;"><g class="legendfill"/><g class="legendlines"/><g class="legendsymbols"><g class="legendpoints"><path class="legendbox" d="M6,6H-6V-6H6Z" transform="translate(20,0)" style="stroke-width: 2px; fill: rgb(149, 200, 195); fill-opacity: 0.5; stroke: rgb(149, 200, 195); stroke-opacity: 1;"/></g></g></g><rect class="legendtoggle" x="0" y="-9.5" width="87.625" height="19" style="fill: rgb(0, 0, 0); fill-opacity: 0;"/></g></g><g class="groups" transform=""><g class="traces" transform="translate(0,51.7)" style="opacity: 1;"><text class="legendtext" text-anchor="start" x="40" y="4.680000000000001" style="font-family: 'Franklin Gothic'; font-size: 12px; fill: rgb(68, 68, 68); fill-opacity: 1; white-space: pre;">Accuracy</text><g class="layers" style="opacity: 1;"><g class="legendfill"/><g class="legendlines"/><g class="legendsymbols"><g class="legendpoints"><path class="legendbox" d="M6,6H-6V-6H6Z" transform="translate(20,0)" style="stroke-width: 2px; fill: rgb(69, 150, 142); fill-opacity: 0.5; stroke: rgb(69, 150, 142); stroke-opacity: 1;"/></g></g></g><rect class="legendtoggle" x="0" y="-9.5" width="87.625" height="19" style="fill: rgb(0, 0, 0); fill-opacity: 0;"/></g></g></g><rect class="scrollbar" rx="20" ry="3" width="0" height="0" style="fill: rgb(128, 139, 164); fill-opacity: 1;" x="0" y="0"/></g><g class="g-gtitle"><text class="gtitle" x="350" y="50" text-anchor="middle" dy="0em" style="font-family: 'Franklin Gothic'; font-size: 17px; fill: rgb(68, 68, 68); opacity: 1; font-weight: normal; white-space: pre;">Model Performance on the Validation Set</text></g><g class="g-xtitle"><text class="xtitle" x="332.5" y="472" text-anchor="middle" style="font-family: 'Franklin Gothic'; font-size: 14px; fill: rgb(68, 68, 68); opacity: 1; font-weight: normal; white-space: pre;">Model</text></g><g class="g-ytitle"><text class="ytitle" transform="rotate(-90,42,260)" x="42" y="260" text-anchor="middle" style="font-family: 'Franklin Gothic'; font-size: 14px; fill: rgb(68, 68, 68); opacity: 1; font-weight: normal; white-space: pre;">Score</text></g></g></svg>