<svg class="main-svg" xmlns="http://www.w3.org/2000/svg" xmlns:xlink="http://www.w3.org/1999/xlink" width="700" height="600" style="" viewBox="0 0 700 600"><rect x="0" y="0" width="700" height="600" style="fill: rgb(255, 255, 255); fill-opacity: 1;"/><defs id="defs-23e148"><g class="clips"><clipPath id="clip23e148xyplot" class="plotclip"><rect width="540" height="420"/></clipPath><clipPath class="axesclip" id="clip23e148x"><rect x="80" y="0" width="540" height="600"/></clipPath><clipPath class="axesclip" id="clip23e148y"><rect x="0" y="100" width="700" height="420"/></clipPath><clipPath class="axesclip" id="clip23e148xy"><rect x="80" y="100" width="540" height="420"/></clipPath></g><g class="gradients"/><g class="patterns"/></defs><g class="bglayer"/><g class="layer-below"><g class="imagelayer"/><g class="shapelayer"/></g><g class="cartesianlayer"><g class="subplot xy"><g class="layer-subplot"><g class="shapelayer"/><g class="imagelayer"/></g><g class="gridlayer"><g class="x"><path class="xgrid crisp" transform="translate(188.3,0)" d="M0,100v420" style="stroke: rgb(238, 238, 238); stroke-opacity: 1; stroke-width: 1px;"/><path class="xgrid crisp" transform="translate(296.1,0)" d="M0,100v420" style="stroke: rgb(238, 238, 238); stroke-opacity: 1; stroke-width: 1px;"/><path class="xgrid crisp" transform="translate(403.9,0)" d="M0,100v420" style="stroke: rgb(238, 238, 238); stroke-opacity: 1; stroke-width: 1px;"/><path class="xgrid crisp" transform="translate(511.7,0)" d="M0,100v420" style="stroke: rgb(238, 238, 238); stroke-opacity: 1; stroke-width: 1px;"/></g><g class="y"><path class="ygrid crisp" transform="translate(0,423.4)" d="M80,0h540" style="stroke: rgb(238, 238, 238); stroke-opacity: 1; stroke-width: 1px;"/><path class="ygrid crisp" transform="translate(0,347.8)" d="M80,0h540" style="stroke: rgb(238, 238, 238); stroke-opacity: 1; stroke-width: 1px;"/><path class="ygrid crisp" transform="translate(0,272.2)" d="M80,0h540" style="stroke: rgb(238, 238, 238); stroke-opacity: 1; stroke-width: 1px;"/><path class="ygrid crisp" transform="translate(0,196.6)" d="M80,0h540" style="stroke: rgb(238, 238, 238); stroke-opacity: 1; stroke-width: 1px;"/><path class="ygrid crisp" transform="translate(0,121)" d="M80,0h540" style="stroke: rgb(238, 238, 238); stroke-opacity: 1; stroke-width: 1px;"/></g></g><g class="zerolinelayer"><path class="xzl zl crisp" transform="translate(80.5,0)" d="M0,100v420" style="stroke: rgb(68, 68, 68); stroke-opacity: 1; stroke-width: 1px;"/><path class="yzl zl crisp" transform="translate(0,499)" d="M80,0h540" style="stroke: rgb(68, 68, 68); stroke-opacity: 1; stroke-width: 1px;"/></g><path class="xlines-below"/><path class="ylines-below"/><g class="overlines-below"/><g class="xaxislayer-below"/><g class="yaxislayer-below"/><g class="overaxes-below"/><g class="plot" transform="translate(80,100)" clip-path="url(#clip23e148xyplot)"><g class="scatterlayer mlayer"><g class="trace scatter trace980050" style="stroke-miterlimit: 2; opacity: 0.7;"><g class="fills"/><g class="errorbars"/><g class="lines"><path class="js-line" d="M0.5,399L0.5,293.82L6.36,293.82L6.36,280.67L12.22,280.67L12.22,267.52L18.08,267.52L18.08,254.37L23.93,254.37L23.93,231.37L29.79,231.37L29.79,191.92L35.65,191.92L35.65,178.77L41.51,178.77L41.51,168.91L47.37,168.91L47.37,149.19L53.23,149.19L53.23,142.62L64.95,142.62L64.95,119.61L70.8,119.61L70.8,70.3L76.66,70.3L76.66,60.44L82.52,60.44L82.52,57.16L117.67,57.16L117.67,53.87L129.39,53.87L129.39,50.58L164.54,50.58L164.54,47.3L176.26,47.3L176.26,37.43L182.12,37.43L182.12,34.15L246.57,34.15L246.57,27.57L270,27.57L270,21L539.5,21" style="vector-effect: non-scaling-stroke; fill: none; stroke: rgb(87, 88, 163); stroke-opacity: 1; stroke-width: 2.5px; opacity: 1;"/></g><g class="points"/><g class="text"/></g><g class="trace scatter trace56fc2e" style="stroke-miterlimit: 2; opacity: 0.7;"><g class="fills"/><g class="errorbars"/><g class="lines"><path class="js-line" d="M0.5,399L0.5,310.25L6.36,310.25L6.36,260.95L12.22,260.95L12.22,228.08L18.08,228.08L18.08,221.5L23.93,221.5L23.93,198.5L29.79,198.5L29.79,152.48L35.65,152.48L35.65,132.76L41.51,132.76L41.51,119.61L47.37,119.61L47.37,116.32L59.09,116.32L59.09,109.75L64.95,109.75L64.95,76.88L70.8,76.88L70.8,73.59L76.66,73.59L76.66,67.02L82.52,67.02L82.52,63.73L88.38,63.73L88.38,50.58L111.82,50.58L111.82,44.01L117.67,44.01L117.67,40.72L135.25,40.72L135.25,37.43L182.12,37.43L182.12,34.15L211.41,34.15L211.41,30.86L240.71,30.86L240.71,27.57L416.47,27.57L416.47,24.29L439.9,24.29L439.9,21L539.5,21" style="vector-effect: non-scaling-stroke; fill: none; stroke: rgb(83, 169, 186); stroke-opacity: 1; stroke-width: 2.5px; opacity: 1;"/></g><g class="points"/><g class="text"/></g><g class="trace scatter tracede234a" style="stroke-miterlimit: 2; opacity: 0.7;"><g class="fills"/><g class="errorbars"/><g class="lines"><path class="js-line" d="M0.5,399L0.5,287.24L6.36,287.24L6.36,247.8L12.22,247.8L12.22,237.94L18.08,237.94L18.08,224.79L23.93,224.79L23.93,221.5L29.79,221.5L29.79,149.19L35.65,149.19L35.65,122.9L47.37,122.9L47.37,119.61L53.23,119.61L53.23,116.32L59.09,116.32L59.09,86.74L70.8,86.74L70.8,83.45L82.52,83.45L82.52,76.88L88.38,76.88L88.38,63.73L100.1,63.73L100.1,57.16L141.11,57.16L141.11,53.87L170.4,53.87L170.4,50.58L211.41,50.58L211.41,47.3L217.27,47.3L305.15,47.3L305.15,40.72L334.45,40.72L334.45,34.15L375.46,34.15L381.32,30.86L539.5,30.86L539.5,21" style="vector-effect: non-scaling-stroke; fill: none; stroke: rgb(2, 105, 100); stroke-opacity: 1; stroke-width: 2.5px; opacity: 1;"/></g><g class="points"/><g class="text"/></g><g class="trace scatter trace8d8d09" style="stroke-miterlimit: 2; opacity: 0.8;"><g class="fills"/><g class="errorbars"/><g class="lines"><path class="js-line" d="M0.5,399L0.5,283.96L6.36,283.96L6.36,241.23L12.22,241.23L12.22,205.07L18.08,205.07L18.08,198.5L23.93,198.5L23.93,165.63L29.79,165.63L29.79,132.76L35.65,132.76L35.65,129.47L41.51,129.47L41.51,116.32L47.37,116.32L47.37,83.45L53.23,83.45L53.23,67.02L59.09,67.02L59.09,60.44L76.66,60.44L76.66,57.16L135.25,57.16L135.25,53.87L141.11,53.87L141.11,50.58L158.68,50.58L158.68,44.01L187.98,44.01L187.98,40.72L205.55,40.72L205.55,37.43L287.58,37.43L287.58,34.15L369.6,34.15L369.6,30.86L416.47,30.86L416.47,24.29L475.05,24.29L475.05,21L539.5,21" style="vector-effect: non-scaling-stroke; fill: none; stroke: rgb(130, 195, 148); stroke-opacity: 1; stroke-width: 2.5px; opacity: 1;"/></g><g class="points"/><g class="text"/></g></g></g><g class="overplot"/><path class="xlines-above crisp" style="fill: none;" d="M0,0"/><path class="ylines-above crisp" style="fill: none;" d="M0,0"/><g class="overlines-above"/><g class="xaxislayer-above"><g class="xtick"><text text-anchor="middle" x="0" y="533" transform="translate(80.5,0)" style="font-family: 'Franklin Gothic'; font-size: 12px; fill: rgb(68, 68, 68); fill-opacity: 1; white-space: pre; opacity: 1;">0</text></g><g class="xtick"><text text-anchor="middle" x="0" y="533" style="font-family: 'Franklin Gothic'; font-size: 12px; fill: rgb(68, 68, 68); fill-opacity: 1; white-space: pre; opacity: 1;" transform="translate(188.3,0)">0.2</text></g><g class="xtick"><text text-anchor="middle" x="0" y="533" style="font-family: 'Franklin Gothic'; font-size: 12px; fill: rgb(68, 68, 68); fill-opacity: 1; white-space: pre; opacity: 1;" transform="translate(296.1,0)">0.4</text></g><g class="xtick"><text text-anchor="middle" x="0" y="533" style="font-family: 'Franklin Gothic'; font-size: 12px; fill: rgb(68, 68, 68); fill-opacity: 1; white-space: pre; opacity: 1;" transform="translate(403.9,0)">0.6</text></g><g class="xtick"><text text-anchor="middle" x="0" y="533" style="font-family: 'Franklin Gothic'; font-size: 12px; fill: rgb(68, 68, 68); fill-opacity: 1; white-space: pre; opacity: 1;" transform="translate(511.7,0)">0.8</text></g><g class="xtick"><text text-anchor="middle" x="0" y="533" style="font-family: 'Franklin Gothic'; font-size: 12px; fill: rgb(68, 68, 68); fill-opacity: 1; white-space: pre; opacity: 1;" transform="translate(619.5,0)">1</text></g></g><g class="yaxislayer-above"><g class="ytick"><text text-anchor="end" x="79" y="4.199999999999999" transform="translate(0,499)" style="font-family: 'Franklin Gothic'; font-size: 12px; fill: rgb(68, 68, 68); fill-opacity: 1; white-space: pre; opacity: 1;">0</text></g><g class="ytick"><text text-anchor="end" x="79" y="4.199999999999999" style="font-family: 'Franklin Gothic'; font-size: 12px; fill: rgb(68, 68, 68); fill-opacity: 1; white-space: pre; opacity: 1;" transform="translate(0,423.4)">0.2</text></g><g class="ytick"><text text-anchor="end" x="79" y="4.199999999999999" style="font-family: 'Franklin Gothic'; font-size: 12px; fill: rgb(68, 68, 68); fill-opacity: 1; white-space: pre; opacity: 1;" transform="translate(0,347.8)">0.4</text></g><g class="ytick"><text text-anchor="end" x="79" y="4.199999999999999" style="font-family: 'Franklin Gothic'; font-size: 12px; fill: rgb(68, 68, 68); fill-opacity: 1; white-space: pre; opacity: 1;" transform="translate(0,272.2)">0.6</text></g><g class="ytick"><text text-anchor="end" x="79" y="4.199999999999999" style="font-family: 'Franklin Gothic'; font-size: 12px; fill: rgb(68, 68, 68); fill-opacity: 1; white-space: pre; opacity: 1;" transform="translate(0,196.6)">0.8</text></g><g class="ytick"><text text-anchor="end" x="79" y="4.199999999999999" style="font-family: 'Franklin Gothic'; font-size: 12px; fill: rgb(68, 68, 68); fill-opacity: 1; white-space: pre; opacity: 1;" transform="translate(0,121)">1</text></g></g><g class="overaxes-above"/></g></g><g class="polarlayer"/><g class="smithlayer"/><g class="ternarylayer"/><g class="geolayer"/><g class="funnelarealayer"/><g class="pielayer"/><g class="iciclelayer"/><g class="treemaplayer"/><g class="sunburstlayer"/><g class="glimages"/><defs id="topdefs-23e148"><g class="clips"/><clipPath id="legend23e148"><rect width="308" height="95" x="0.5" y="0.5"/></clipPath></defs><g class="layer-above"><g class="imagelayer"/><g class="shapelayer"><path data-index="0" fill-rule="evenodd" d="M80.5,499L619.5,121" clip-path="url(#clip23e148xy)" style="opacity: 1; stroke: rgb(0, 0, 0); stroke-opacity: 1; fill: rgb(0, 0, 0); fill-opacity: 0; stroke-dasharray: 3px, 3px; stroke-width: 1px;"/></g></g><g class="infolayer"><g class="legend" pointer-events="all" transform="translate(311,373.6)"><rect class="bg" shape-rendering="crispEdges" style="stroke: rgb(0, 0, 0); stroke-opacity: 1; fill: rgb(255, 255, 255); fill-opacity: 1; stroke-width: 0.5px;" width="308.5" height="95.5" x="0.25" y="0.25"/><g class="scrollbox" transform="" clip-path="url(#legend23e148)"><g class="groups"><g class="traces" style="opacity: 1;" transform="translate(0.5,16.1)"><text class="legendtext" text-anchor="start" x="40" y="5.46" style="font-family: 'Franklin Gothic'; font-size: 14px; fill: rgb(68, 68, 68); fill-opacity: 1; white-space: pre;">Extra Trees ROC Curve (AUC = 0.900)</text><g class="layers" style="opacity: 0.7;"><g class="legendfill"/><g class="legendlines"><path class="js-line" d="M5,0h30" style="fill: none; stroke: rgb(87, 88, 163); stroke-opacity: 1; stroke-width: 2.5px;"/></g><g class="legendsymbols"><g class="legendpoints"/></g></g><rect class="legendtoggle" x="0" y="-10.6" width="302.53125" height="21.2" style="fill: rgb(0, 0, 0); fill-opacity: 0;"/></g><g class="traces" style="opacity: 1;" transform="translate(0.5,37.3)"><text class="legendtext" text-anchor="start" x="40" y="5.46" style="font-family: 'Franklin Gothic'; font-size: 14px; fill: rgb(68, 68, 68); fill-opacity: 1; white-space: pre;">Random Forest ROC Curve (AUC = 0.917)</text><g class="layers" style="opacity: 0.7;"><g class="legendfill"/><g class="legendlines"><path class="js-line" d="M5,0h30" style="fill: none; stroke: rgb(83, 169, 186); stroke-opacity: 1; stroke-width: 2.5px;"/></g><g class="legendsymbols"><g class="legendpoints"/></g></g><rect class="legendtoggle" x="0" y="-10.6" width="302.53125" height="21.2" style="fill: rgb(0, 0, 0); fill-opacity: 0;"/></g><g class="traces" style="opacity: 1;" transform="translate(0.5,58.5)"><text class="legendtext" text-anchor="start" x="40" y="5.46" style="font-family: 'Franklin Gothic'; font-size: 14px; fill: rgb(68, 68, 68); fill-opacity: 1; white-space: pre;">AdaBoost ROC Curve (AUC = 0.910)</text><g class="layers" style="opacity: 0.7;"><g class="legendfill"/><g class="legendlines"><path class="js-line" d="M5,0h30" style="fill: none; stroke: rgb(2, 105, 100); stroke-opacity: 1; stroke-width: 2.5px;"/></g><g class="legendsymbols"><g class="legendpoints"/></g></g><rect class="legendtoggle" x="0" y="-10.6" width="302.53125" height="21.2" style="fill: rgb(0, 0, 0); fill-opacity: 0;"/></g><g class="traces" style="opacity: 1;" transform="translate(0.5,79.69999999999999)"><text class="legendtext" text-anchor="start" x="40" y="5.46" style="font-family: 'Franklin Gothic'; font-size: 14px; fill: rgb(68, 68, 68); fill-opacity: 1; white-space: pre;">Gradient Boosting ROC Curve (AUC = 0.927)</text><g class="layers" style="opacity: 0.8;"><g class="legendfill"/><g class="legendlines"><path class="js-line" d="M5,0h30" style="fill: none; stroke: rgb(130, 195, 148); stroke-opacity: 1; stroke-width: 2.5px;"/></g><g class="legendsymbols"><g class="legendpoints"/></g></g><rect class="legendtoggle" x="0" y="-10.6" width="302.53125" height="21.2" style="fill: rgb(0, 0, 0); fill-opacity: 0;"/></g></g></g><rect class="scrollbar" rx="20" ry="3" width="0" height="0" style="fill: rgb(128, 139, 164); fill-opacity: 1;" x="0" y="0"/></g><g class="g-gtitle"><text class="gtitle" x="350" y="50" text-anchor="middle" dy="0em" style="font-family: 'Franklin Gothic'; font-size: 17px; fill: rgb(68, 68, 68); opacity: 1; font-weight: normal; white-space: pre;">ROC Curve Comparison on the Test Set</text></g><g class="g-xtitle"><text class="xtitle" x="350" y="572" text-anchor="middle" style="font-family: 'Franklin Gothic'; font-size: 14px; fill: rgb(68, 68, 68); opacity: 1; font-weight: normal; white-space: pre;">False Positive Rate (1 - Specificity)</text></g><g class="g-ytitle"><text class="ytitle" transform="rotate(-90,42,310)" x="42" y="310" text-anchor="middle" style="font-family: 'Franklin Gothic'; font-size: 14px; fill: rgb(68, 68, 68); opacity: 1; font-weight: normal; white-space: pre;">True Positive Rate (Sensitivity)</text></g></g></svg>